<svg fill="none" height="189" viewBox="0 0 1929 189" width="1929" xmlns="http://www.w3.org/2000/svg" xmlns:xlink="http://www.w3.org/1999/xlink"><linearGradient id="a" gradientUnits="userSpaceOnUse" x1=".40625" x2="1928.02" y1="94.2407" y2="94.2407"><stop offset="0" stop-color="#fff" stop-opacity="0"/><stop offset=".5" stop-color="#0091ea"/><stop offset="1" stop-color="#fff" stop-opacity="0"/></linearGradient><mask id="b" fill="#fff"><path d="m.40625 0h1927.61375v188.481h-1927.61375z" fill="#fff"/></mask><path d="m.40625 0h1927.61375v188.481h-1927.61375z" fill="#0d203b"/><path d="m1928.02 187.481h-1927.61375v2h1927.61375z" fill="url(#a)" mask="url(#b)"/><g opacity=".05"><path d="m1444.41 168.256v14.442h14.44v-14.442z" fill="#bc3a41"/><path d="m1444.41 150.203v14.442h14.44v-14.442z" fill="#0d203b"/><path d="m1444.41 132.152v14.442h14.44v-14.442z" fill="#0d203b"/><path d="m1444.41 114.099v14.442h14.44v-14.442z" fill="#0d203b"/><path d="m1444.41 96.0463v14.4417h14.44v-14.4417z" fill="#0d203b"/><path d="m1444.41 77.9936v14.4419h14.44v-14.4419z" fill="#bc3a41"/><path d="m1444.41 59.9418v14.442h14.44v-14.442z" fill="#bc3a41"/><path d="m1444.41 41.8881v14.442h14.44v-14.442z" fill="#bc3a41"/><path d="m1444.41 23.8354v14.4419h14.44v-14.4419z" fill="#0091ea"/><path d="m1444.41 5.78459v14.44201h14.44v-14.44201z" fill="#0091ea"/><path d="m1462.46 168.256v14.442h14.44v-14.442z" fill="#0091ea"/><path d="m1462.46 150.203v14.442h14.44v-14.442z" fill="#bc3a41"/><path d="m1462.46 132.152v14.442h14.44v-14.442z" fill="#0091ea"/><path d="m1462.46 114.099v14.442h14.44v-14.442z" fill="#0091ea"/><path d="m1462.46 96.0463v14.4417h14.44v-14.4417z" fill="#0091ea"/><path d="m1462.46 77.9936v14.4419h14.44v-14.4419z" fill="#0091ea"/><path d="m1462.46 59.9418v14.442h14.44v-14.442z" fill="#0d203b"/><path d="m1462.46 41.8881v14.442h14.44v-14.442z" fill="#0d203b"/><path d="m1462.46 23.8354v14.4419h14.44v-14.4419z" fill="#0d203b"/><path d="m1462.46 5.78459v14.44201h14.44v-14.44201z" fill="#0091ea"/><path d="m1480.51 168.256v14.442h14.44v-14.442z" fill="#0091ea"/><path d="m1480.51 150.203v14.442h14.44v-14.442z" fill="#0091ea"/><path d="m1480.51 132.152v14.442h14.44v-14.442z" fill="#bc3a41"/><path d="m1480.51 114.099v14.442h14.44v-14.442z" fill="#bc3a41"/><path d="m1480.51 96.0463v14.4417h14.44v-14.4417z" fill="#bc3a41"/><path d="m1480.51 77.9936v14.4419h14.44v-14.4419z" fill="#0d203b"/><path d="m1480.51 59.9418v14.442h14.44v-14.442z" fill="#0091ea"/><path d="m1480.51 41.8881v14.442h14.44v-14.442z" fill="#bc3a41"/><path d="m1480.51 23.8354v14.4419h14.44v-14.4419z" fill="#0d203b"/><path d="m1480.51 5.78459v14.44201h14.44v-14.44201z" fill="#0091ea"/><path d="m1498.57 168.256v14.442h14.44v-14.442z" fill="#bc3a41"/><path d="m1498.57 150.203v14.442h14.44v-14.442z" fill="#0091ea"/><path d="m1498.57 132.152v14.442h14.44v-14.442z" fill="#0d203b"/><path d="m1498.57 114.099v14.442h14.44v-14.442z" fill="#0d203b"/><path d="m1498.57 96.0463v14.4417h14.44v-14.4417z" fill="#bc3a41"/><path d="m1498.57 77.9936v14.4419h14.44v-14.4419z" fill="#bc3a41"/><path d="m1498.57 59.9418v14.442h14.44v-14.442z" fill="#0d203b"/><path d="m1498.57 41.8881v14.442h14.44v-14.442z" fill="#bc3a41"/><path d="m1498.57 23.8354v14.4419h14.44v-14.4419z" fill="#0091ea"/><path d="m1498.57 5.78459v14.44201h14.44v-14.44201z" fill="#0091ea"/><path d="m1516.62 168.256v14.442h14.44v-14.442z" fill="#0d203b"/><path d="m1516.62 150.203v14.442h14.44v-14.442z" fill="#bc3a41"/><path d="m1516.62 132.152v14.442h14.44v-14.442z" fill="#0d203b"/><path d="m1516.62 114.099v14.442h14.44v-14.442z" fill="#0d203b"/><path d="m1516.62 96.0463v14.4417h14.44v-14.4417z" fill="#bc3a41"/><path d="m1516.62 77.9936v14.4419h14.44v-14.4419z" fill="#0d203b"/><path d="m1516.62 59.9418v14.442h14.44v-14.442z" fill="#bc3a41"/><path d="m1516.62 41.8881v14.442h14.44v-14.442z" fill="#bc3a41"/><path d="m1516.62 23.8354v14.4419h14.44v-14.4419z" fill="#bc3a41"/><path d="m1516.62 5.78459v14.44201h14.44v-14.44201z" fill="#0091ea"/><path d="m1534.67 168.256v14.442h14.44v-14.442z" fill="#0091ea"/><path d="m1534.67 150.203v14.442h14.44v-14.442z" fill="#0091ea"/><path d="m1534.67 132.152v14.442h14.44v-14.442z" fill="#0d203b"/><path d="m1534.67 114.099v14.442h14.44v-14.442z" fill="#bc3a41"/><path d="m1534.67 96.0463v14.4417h14.44v-14.4417z" fill="#0d203b"/><path d="m1534.67 77.9936v14.4419h14.44v-14.4419z" fill="#0d203b"/><path d="m1534.67 59.9418v14.442h14.44v-14.442z" fill="#0091ea"/><path d="m1534.67 41.8881v14.442h14.44v-14.442z" fill="#bc3a41"/><path d="m1534.67 23.8354v14.4419h14.44v-14.4419z" fill="#0d203b"/><path d="m1534.67 5.78459v14.44201h14.44v-14.44201z" fill="#bc3a41"/><path d="m1552.72 168.256v14.442h14.44v-14.442z" fill="#bc3a41"/><path d="m1552.72 150.203v14.442h14.44v-14.442z" fill="#0091ea"/><path d="m1552.72 132.152v14.442h14.44v-14.442z" fill="#bc3a41"/><path d="m1552.72 114.099v14.442h14.44v-14.442z" fill="#0091ea"/><path d="m1552.72 96.0463v14.4417h14.44v-14.4417z" fill="#0d203b"/><path d="m1552.72 77.9936v14.4419h14.44v-14.4419z" fill="#bc3a41"/><path d="m1552.72 59.9418v14.442h14.44v-14.442z" fill="#0d203b"/><path d="m1552.72 41.8881v14.442h14.44v-14.442z" fill="#0d203b"/><path d="m1552.72 23.8354v14.4419h14.44v-14.4419z" fill="#bc3a41"/><path d="m1552.72 5.78459v14.44201h14.44v-14.44201z" fill="#bc3a41"/><path d="m1570.77 168.256v14.442h14.45v-14.442z" fill="#0d203b"/><path d="m1570.77 150.203v14.442h14.45v-14.442z" fill="#0d203b"/><path d="m1570.77 132.152v14.442h14.45v-14.442z" fill="#bc3a41"/><path d="m1570.77 114.099v14.442h14.45v-14.442z" fill="#0091ea"/><path d="m1570.77 96.0463v14.4417h14.45v-14.4417z" fill="#0091ea"/><path d="m1570.77 77.9936v14.4419h14.45v-14.4419z" fill="#0091ea"/><path d="m1570.77 59.9418v14.442h14.45v-14.442z" fill="#0091ea"/><path d="m1570.77 41.8881v14.442h14.45v-14.442z" fill="#bc3a41"/><path d="m1570.77 23.8354v14.4419h14.45v-14.4419z" fill="#0d203b"/><path d="m1570.77 5.78459v14.44201h14.45v-14.44201z" fill="#bc3a41"/><path d="m1588.82 168.256v14.442h14.45v-14.442z" fill="#0d203b"/><path d="m1588.82 150.203v14.442h14.45v-14.442z" fill="#0091ea"/><path d="m1588.82 132.152v14.442h14.45v-14.442z" fill="#bc3a41"/><path d="m1588.82 114.099v14.442h14.45v-14.442z" fill="#bc3a41"/><g fill="#0d203b"><path d="m1588.82 96.0463v14.4417h14.45v-14.4417z"/><path d="m1588.82 77.9936v14.4419h14.45v-14.4419z"/><path d="m1588.82 59.9418v14.442h14.45v-14.442z"/><path d="m1588.82 41.8881v14.442h14.45v-14.442z"/><path d="m1588.82 23.8354v14.4419h14.45v-14.4419z"/></g><path d="m1588.82 5.78459v14.44201h14.45v-14.44201z" fill="#bc3a41"/><path d="m1606.88 168.256v14.442h14.44v-14.442z" fill="#bc3a41"/><path d="m1606.88 150.203v14.442h14.44v-14.442z" fill="#0091ea"/><path d="m1606.88 132.152v14.442h14.44v-14.442z" fill="#0d203b"/><path d="m1606.88 114.099v14.442h14.44v-14.442z" fill="#0091ea"/><path d="m1606.88 96.0463v14.4417h14.44v-14.4417z" fill="#0d203b"/><path d="m1606.88 77.9936v14.4419h14.44v-14.4419z" fill="#0091ea"/><path d="m1606.88 59.9418v14.442h14.44v-14.442z" fill="#0091ea"/><path d="m1606.88 41.8881v14.442h14.44v-14.442z" fill="#0091ea"/><path d="m1606.88 23.8354v14.4419h14.44v-14.4419z" fill="#0d203b"/><path d="m1606.88 5.78459v14.44201h14.44v-14.44201z" fill="#0d203b"/><path d="m1624.93 168.256v14.442h14.45v-14.442z" fill="#0091ea"/><path d="m1624.93 150.203v14.442h14.45v-14.442z" fill="#0d203b"/><path d="m1624.93 132.152v14.442h14.45v-14.442z" fill="#0d203b"/><path d="m1624.93 114.099v14.442h14.45v-14.442z" fill="#bc3a41"/><path d="m1624.93 96.0463v14.4417h14.45v-14.4417z" fill="#0091ea"/><path d="m1624.93 77.9936v14.4419h14.45v-14.4419z" fill="#bc3a41"/><path d="m1624.93 59.9418v14.442h14.45v-14.442z" fill="#0091ea"/><path d="m1624.93 41.8881v14.442h14.45v-14.442z" fill="#0091ea"/><path d="m1624.93 23.8354v14.4419h14.45v-14.4419z" fill="#bc3a41"/><path d="m1624.93 5.78459v14.44201h14.45v-14.44201z" fill="#0091ea"/><path d="m1642.98 168.256v14.442h14.45v-14.442z" fill="#0091ea"/><path d="m1642.98 150.203v14.442h14.45v-14.442z" fill="#bc3a41"/><path d="m1642.98 132.152v14.442h14.45v-14.442z" fill="#0091ea"/><path d="m1642.98 114.099v14.442h14.45v-14.442z" fill="#0d203b"/><path d="m1642.98 96.0463v14.4417h14.45v-14.4417z" fill="#bc3a41"/><path d="m1642.98 77.9936v14.4419h14.45v-14.4419z" fill="#0091ea"/><path d="m1642.98 59.9418v14.442h14.45v-14.442z" fill="#bc3a41"/><path d="m1642.98 41.8881v14.442h14.45v-14.442z" fill="#bc3a41"/><path d="m1642.98 23.8354v14.4419h14.45v-14.4419z" fill="#0091ea"/><path d="m1642.98 5.78459v14.44201h14.45v-14.44201z" fill="#0091ea"/><path d="m1661.04 168.256v14.442h14.44v-14.442z" fill="#0091ea"/><path d="m1661.04 150.203v14.442h14.44v-14.442z" fill="#0091ea"/><path d="m1661.04 132.152v14.442h14.44v-14.442z" fill="#0d203b"/><path d="m1661.04 114.099v14.442h14.44v-14.442z" fill="#0d203b"/><path d="m1661.04 96.0463v14.4417h14.44v-14.4417z" fill="#bc3a41"/><path d="m1661.04 77.9936v14.4419h14.44v-14.4419z" fill="#0091ea"/><path d="m1661.04 59.9418v14.442h14.44v-14.442z" fill="#0091ea"/><path d="m1661.04 41.8881v14.442h14.44v-14.442z" fill="#bc3a41"/><path d="m1661.04 23.8354v14.4419h14.44v-14.4419z" fill="#0d203b"/><path d="m1661.04 5.78459v14.44201h14.44v-14.44201z" fill="#bc3a41"/><path d="m1679.09 168.256v14.442h14.44v-14.442z" fill="#bc3a41"/><path d="m1679.09 150.203v14.442h14.44v-14.442z" fill="#0d203b"/><path d="m1679.09 132.152v14.442h14.44v-14.442z" fill="#0d203b"/><path d="m1679.09 114.099v14.442h14.44v-14.442z" fill="#bc3a41"/><path d="m1679.09 96.0463v14.4417h14.44v-14.4417z" fill="#0d203b"/><path d="m1679.09 77.9936v14.4419h14.44v-14.4419z" fill="#0d203b"/><path d="m1679.09 59.9418v14.442h14.44v-14.442z" fill="#bc3a41"/><path d="m1679.09 41.8881v14.442h14.44v-14.442z" fill="#bc3a41"/><path d="m1679.09 23.8354v14.4419h14.44v-14.4419z" fill="#bc3a41"/><path d="m1679.09 5.78459v14.44201h14.44v-14.44201z" fill="#0d203b"/><path d="m1697.14 168.256v14.442h14.44v-14.442z" fill="#0091ea"/><path d="m1697.14 150.203v14.442h14.44v-14.442z" fill="#bc3a41"/><path d="m1697.14 132.152v14.442h14.44v-14.442z" fill="#0091ea"/><path d="m1697.14 114.099v14.442h14.44v-14.442z" fill="#0d203b"/><path d="m1697.14 96.0463v14.4417h14.44v-14.4417z" fill="#0d203b"/><path d="m1697.14 77.9936v14.4419h14.44v-14.4419z" fill="#0d203b"/><path d="m1697.14 59.9418v14.442h14.44v-14.442z" fill="#0091ea"/><path d="m1697.14 41.8881v14.442h14.44v-14.442z" fill="#0091ea"/><path d="m1697.14 23.8354v14.4419h14.44v-14.4419z" fill="#0091ea"/><path d="m1697.14 5.78459v14.44201h14.44v-14.44201z" fill="#0091ea"/><path d="m1715.2 168.256v14.442h14.44v-14.442z" fill="#0091ea"/><path d="m1715.2 150.203v14.442h14.44v-14.442z" fill="#bc3a41"/><path d="m1715.2 132.152v14.442h14.44v-14.442z" fill="#0091ea"/><path d="m1715.2 114.099v14.442h14.44v-14.442z" fill="#bc3a41"/><path d="m1715.2 96.0463v14.4417h14.44v-14.4417z" fill="#bc3a41"/><path d="m1715.2 77.9936v14.4419h14.44v-14.4419z" fill="#bc3a41"/><path d="m1715.2 59.9418v14.442h14.44v-14.442z" fill="#0d203b"/><path d="m1715.2 41.8881v14.442h14.44v-14.442z" fill="#0d203b"/><path d="m1715.2 23.8354v14.4419h14.44v-14.4419z" fill="#0d203b"/><path d="m1715.2 5.78459v14.44201h14.44v-14.44201z" fill="#bc3a41"/><path d="m1733.25 168.256v14.442h14.44v-14.442z" fill="#bc3a41"/><path d="m1733.25 150.203v14.442h14.44v-14.442z" fill="#0091ea"/><path d="m1733.25 132.152v14.442h14.44v-14.442z" fill="#0091ea"/><path d="m1733.25 114.099v14.442h14.44v-14.442z" fill="#bc3a41"/><path d="m1733.25 96.0463v14.4417h14.44v-14.4417z" fill="#bc3a41"/><path d="m1733.25 77.9936v14.4419h14.44v-14.4419z" fill="#0091ea"/><path d="m1733.25 59.9418v14.442h14.44v-14.442z" fill="#bc3a41"/><path d="m1733.25 41.8881v14.442h14.44v-14.442z" fill="#0091ea"/><path d="m1733.25 23.8354v14.4419h14.44v-14.4419z" fill="#0d203b"/><path d="m1733.25 5.78459v14.44201h14.44v-14.44201z" fill="#0d203b"/><path d="m1751.3 168.256v14.442h14.44v-14.442z" fill="#0d203b"/><path d="m1751.3 150.203v14.442h14.44v-14.442z" fill="#bc3a41"/><path d="m1751.3 132.152v14.442h14.44v-14.442z" fill="#0091ea"/><path d="m1751.3 114.099v14.442h14.44v-14.442z" fill="#0091ea"/><path d="m1751.3 96.0463v14.4417h14.44v-14.4417z" fill="#0091ea"/><path d="m1751.3 77.9936v14.4419h14.44v-14.4419z" fill="#0d203b"/><path d="m1751.3 59.9418v14.442h14.44v-14.442z" fill="#0091ea"/><path d="m1751.3 41.8881v14.442h14.44v-14.442z" fill="#bc3a41"/><path d="m1751.3 23.8354v14.4419h14.44v-14.4419z" fill="#0d203b"/><path d="m1751.3 5.78459v14.44201h14.44v-14.44201z" fill="#0d203b"/><path d="m1769.35 168.256v14.442h14.44v-14.442z" fill="#bc3a41"/><path d="m1769.35 150.203v14.442h14.44v-14.442z" fill="#0091ea"/><path d="m1769.35 132.152v14.442h14.44v-14.442z" fill="#0d203b"/><path d="m1769.35 114.099v14.442h14.44v-14.442z" fill="#0d203b"/><path d="m1769.35 96.0463v14.4417h14.44v-14.4417z" fill="#bc3a41"/><path d="m1769.35 77.9936v14.4419h14.44v-14.4419z" fill="#0d203b"/><path d="m1769.35 59.9418v14.442h14.44v-14.442z" fill="#bc3a41"/><path d="m1769.35 41.8881v14.442h14.44v-14.442z" fill="#bc3a41"/><path d="m1769.35 23.8354v14.4419h14.44v-14.4419z" fill="#0d203b"/><path d="m1769.35 5.78459v14.44201h14.44v-14.44201z" fill="#0d203b"/><path d="m1787.4 168.256v14.442h14.44v-14.442z" fill="#0d203b"/><path d="m1787.4 150.203v14.442h14.44v-14.442z" fill="#bc3a41"/><path d="m1787.4 132.152v14.442h14.44v-14.442z" fill="#0091ea"/><path d="m1787.4 114.099v14.442h14.44v-14.442z" fill="#0d203b"/><path d="m1787.4 96.0463v14.4417h14.44v-14.4417z" fill="#bc3a41"/><path d="m1787.4 77.9936v14.4419h14.44v-14.4419z" fill="#0091ea"/><path d="m1787.4 59.9418v14.442h14.44v-14.442z" fill="#0091ea"/><path d="m1787.4 41.8881v14.442h14.44v-14.442z" fill="#bc3a41"/><path d="m1787.4 23.8354v14.4419h14.44v-14.4419z" fill="#0091ea"/><path d="m1787.4 5.78459v14.44201h14.44v-14.44201z" fill="#bc3a41"/><path d="m1805.26 168.256v14.442h14.44v-14.442z" fill="#bc3a41"/><path d="m1805.26 150.203v14.442h14.44v-14.442z" fill="#0d203b"/><path d="m1805.26 132.152v14.442h14.44v-14.442z" fill="#0d203b"/><path d="m1805.26 114.099v14.442h14.44v-14.442z" fill="#0d203b"/><path d="m1805.26 96.0463v14.4417h14.44v-14.4417z" fill="#0d203b"/><path d="m1805.26 77.9936v14.4419h14.44v-14.4419z" fill="#bc3a41"/><path d="m1805.26 59.9418v14.442h14.44v-14.442z" fill="#bc3a41"/><path d="m1805.26 41.8881v14.442h14.44v-14.442z" fill="#bc3a41"/><path d="m1805.26 23.8354v14.4419h14.44v-14.4419z" fill="#0091ea"/><path d="m1805.26 5.78459v14.44201h14.44v-14.44201z" fill="#0091ea"/><path d="m1823.31 168.256v14.442h14.44v-14.442z" fill="#0091ea"/><path d="m1823.31 150.203v14.442h14.44v-14.442z" fill="#bc3a41"/><path d="m1823.31 132.152v14.442h14.44v-14.442z" fill="#0091ea"/><path d="m1823.31 114.099v14.442h14.44v-14.442z" fill="#0091ea"/><path d="m1823.31 96.0463v14.4417h14.44v-14.4417z" fill="#0091ea"/><path d="m1823.31 77.9936v14.4419h14.44v-14.4419z" fill="#0091ea"/><path d="m1823.31 59.9418v14.442h14.44v-14.442z" fill="#0d203b"/><path d="m1823.31 41.8881v14.442h14.44v-14.442z" fill="#0d203b"/><path d="m1823.31 23.8354v14.4419h14.44v-14.4419z" fill="#0d203b"/><path d="m1823.31 5.78459v14.44201h14.44v-14.44201z" fill="#0091ea"/><path d="m1841.37 168.256v14.442h14.44v-14.442z" fill="#0091ea"/><path d="m1841.36 150.203v14.442h14.45v-14.442z" fill="#0091ea"/><path d="m1841.36 132.152v14.442h14.45v-14.442z" fill="#bc3a41"/><path d="m1841.36 114.099v14.442h14.45v-14.442z" fill="#bc3a41"/><path d="m1841.36 96.0463v14.4417h14.45v-14.4417z" fill="#bc3a41"/><path d="m1841.36 77.9936v14.4419h14.45v-14.4419z" fill="#0d203b"/><path d="m1841.36 59.9418v14.442h14.45v-14.442z" fill="#0091ea"/><path d="m1841.36 41.8881v14.442h14.45v-14.442z" fill="#bc3a41"/><path d="m1841.36 23.8354v14.4419h14.45v-14.4419z" fill="#0d203b"/><path d="m1841.36 5.78459v14.44201h14.45v-14.44201z" fill="#0091ea"/><path d="m1859.42 168.256v14.442h14.44v-14.442z" fill="#bc3a41"/><path d="m1859.42 150.203v14.442h14.44v-14.442z" fill="#0091ea"/><path d="m1859.42 132.152v14.442h14.44v-14.442z" fill="#0d203b"/><path d="m1859.42 114.099v14.442h14.44v-14.442z" fill="#0d203b"/><path d="m1859.42 96.0463v14.4417h14.44v-14.4417z" fill="#bc3a41"/><path d="m1859.42 77.9936v14.4419h14.44v-14.4419z" fill="#bc3a41"/><path d="m1859.42 59.9418v14.442h14.44v-14.442z" fill="#0d203b"/><path d="m1859.42 41.8881v14.442h14.44v-14.442z" fill="#bc3a41"/><path d="m1859.42 23.8354v14.4419h14.44v-14.4419z" fill="#0091ea"/><path d="m1859.42 5.78459v14.44201h14.44v-14.44201z" fill="#0091ea"/><path d="m1877.47 168.256v14.442h14.44v-14.442z" fill="#0d203b"/><path d="m1877.47 150.203v14.442h14.44v-14.442z" fill="#bc3a41"/><path d="m1877.47 132.152v14.442h14.44v-14.442z" fill="#0d203b"/><path d="m1877.47 114.099v14.442h14.44v-14.442z" fill="#0d203b"/><path d="m1877.47 96.0463v14.4417h14.44v-14.4417z" fill="#bc3a41"/><path d="m1877.47 77.9936v14.4419h14.44v-14.4419z" fill="#0d203b"/><path d="m1877.47 59.9418v14.442h14.44v-14.442z" fill="#bc3a41"/><path d="m1877.47 41.8881v14.442h14.44v-14.442z" fill="#bc3a41"/><path d="m1877.47 23.8354v14.4419h14.44v-14.4419z" fill="#bc3a41"/><path d="m1877.47 5.78459v14.44201h14.44v-14.44201z" fill="#0091ea"/><path d="m1895.52 168.256v14.442h14.45v-14.442z" fill="#0091ea"/><path d="m1895.52 150.203v14.442h14.45v-14.442z" fill="#0091ea"/><path d="m1895.52 132.152v14.442h14.45v-14.442z" fill="#0d203b"/><path d="m1895.52 114.099v14.442h14.45v-14.442z" fill="#bc3a41"/><path d="m1895.52 96.0463v14.4417h14.45v-14.4417z" fill="#0d203b"/><path d="m1895.52 77.9936v14.4419h14.45v-14.4419z" fill="#0d203b"/><path d="m1895.52 59.9418v14.442h14.45v-14.442z" fill="#0091ea"/><path d="m1895.52 41.8881v14.442h14.45v-14.442z" fill="#bc3a41"/><path d="m1895.52 23.8354v14.4419h14.45v-14.4419z" fill="#0d203b"/><path d="m1895.52 5.78459v14.44201h14.45v-14.44201z" fill="#bc3a41"/><path d="m1913.57 168.256v14.442h14.45v-14.442z" fill="#bc3a41"/><path d="m1913.57 150.203v14.442h14.45v-14.442z" fill="#0091ea"/><path d="m1913.57 132.152v14.442h14.45v-14.442z" fill="#bc3a41"/><path d="m1913.57 114.099v14.442h14.45v-14.442z" fill="#0091ea"/><path d="m1913.57 96.0463v14.4417h14.45v-14.4417z" fill="#0d203b"/><path d="m1913.57 77.9936v14.4419h14.45v-14.4419z" fill="#bc3a41"/><path d="m1913.57 59.9418v14.442h14.45v-14.442z" fill="#0d203b"/><path d="m1913.57 41.8881v14.442h14.45v-14.442z" fill="#0d203b"/><path d="m1913.57 23.8354v14.4419h14.45v-14.4419z" fill="#bc3a41"/><path d="m1913.57 5.78459v14.44201h14.45v-14.44201z" fill="#bc3a41"/><path d="m.406249 168.256.000001 14.442h14.44195v-14.442z" fill="#bc3a41"/><path d="m.406249 150.203.000001 14.442h14.44195v-14.442z" fill="#0d203b"/><path d="m.406249 132.152.000001 14.442h14.44195v-14.442z" fill="#0d203b"/><path d="m.406249 114.099.000001 14.442h14.44195v-14.442z" fill="#0d203b"/><path d="m.406249 96.0463.000001 14.4417h14.44195v-14.4417z" fill="#0d203b"/><path d="m.406249 77.9936.000001 14.4419h14.44195v-14.4419z" fill="#bc3a41"/><path d="m.406249 59.9418.000001 14.442h14.44195v-14.442z" fill="#bc3a41"/><path d="m.406249 41.8881.000001 14.442h14.44195v-14.442z" fill="#bc3a41"/><path d="m.406249 23.8354.000001 14.4419h14.44195v-14.4419z" fill="#0091ea"/><path d="m.406249 5.78459.000001 14.44201h14.44195v-14.44201z" fill="#0091ea"/><path d="m18.457 168.256v14.442h14.442v-14.442z" fill="#0091ea"/><path d="m18.457 150.203v14.442h14.442v-14.442z" fill="#bc3a41"/><path d="m18.457 132.152v14.442h14.442v-14.442z" fill="#0091ea"/><path d="m18.457 114.099v14.442h14.442v-14.442z" fill="#0091ea"/><path d="m18.457 96.0463v14.4417h14.442v-14.4417z" fill="#0091ea"/><path d="m18.457 77.9936v14.4419h14.442v-14.4419z" fill="#0091ea"/><path d="m18.457 59.9418v14.442h14.442v-14.442z" fill="#0d203b"/><path d="m18.457 41.8881v14.442h14.442v-14.442z" fill="#0d203b"/><path d="m18.457 23.8354v14.4419h14.442v-14.4419z" fill="#0d203b"/><path d="m18.457 5.78459v14.44201h14.442v-14.44201z" fill="#0091ea"/><path d="m36.5117 168.256v14.442h14.442v-14.442z" fill="#0091ea"/><path d="m36.5117 150.203v14.442h14.442v-14.442z" fill="#0091ea"/><path d="m36.5117 132.152v14.442h14.442v-14.442z" fill="#bc3a41"/><path d="m36.5117 114.099v14.442h14.442v-14.442z" fill="#bc3a41"/><path d="m36.5117 96.0463v14.4417h14.442v-14.4417z" fill="#bc3a41"/><path d="m36.5117 77.9936v14.4419h14.442v-14.4419z" fill="#0d203b"/><path d="m36.5117 59.9418v14.442h14.442v-14.442z" fill="#0091ea"/><path d="m36.5117 41.8881v14.442h14.442v-14.442z" fill="#bc3a41"/><path d="m36.5117 23.8354v14.4419h14.442v-14.4419z" fill="#0d203b"/><path d="m36.5117 5.78459v14.44201h14.442v-14.44201z" fill="#0091ea"/><path d="m54.5664 168.256v14.442h14.442v-14.442z" fill="#bc3a41"/><path d="m54.5664 150.203v14.442h14.442v-14.442z" fill="#0091ea"/><path d="m54.5664 132.152v14.442h14.442v-14.442z" fill="#0d203b"/><path d="m54.5664 114.099v14.442h14.442v-14.442z" fill="#0d203b"/><path d="m54.5664 96.0463v14.4417h14.442v-14.4417z" fill="#bc3a41"/><path d="m54.5664 77.9936v14.4419h14.442v-14.4419z" fill="#bc3a41"/><path d="m54.5664 59.9418v14.442h14.442v-14.442z" fill="#0d203b"/><path d="m54.5664 41.8881v14.442h14.442v-14.442z" fill="#bc3a41"/><path d="m54.5664 23.8354v14.4419h14.442v-14.4419z" fill="#0091ea"/><path d="m54.5664 5.78459v14.44201h14.442v-14.44201z" fill="#0091ea"/><path d="m72.6172 168.256v14.442h14.442v-14.442z" fill="#0d203b"/><path d="m72.6172 150.203v14.442h14.442v-14.442z" fill="#bc3a41"/><path d="m72.6172 132.152v14.442h14.442v-14.442z" fill="#0d203b"/><path d="m72.6172 114.099v14.442h14.442v-14.442z" fill="#0d203b"/><path d="m72.6172 96.0463v14.4417h14.442v-14.4417z" fill="#bc3a41"/><path d="m72.6172 77.9936v14.4419h14.442v-14.4419z" fill="#0d203b"/><path d="m72.6172 59.9418v14.442h14.442v-14.442z" fill="#bc3a41"/><path d="m72.6172 41.8881v14.442h14.442v-14.442z" fill="#bc3a41"/><path d="m72.6172 23.8354v14.4419h14.442v-14.4419z" fill="#bc3a41"/><path d="m72.6172 5.78459v14.44201h14.442v-14.44201z" fill="#0091ea"/><path d="m90.668 168.256v14.442h14.442v-14.442z" fill="#0091ea"/><path d="m90.668 150.203v14.442h14.442v-14.442z" fill="#0091ea"/><path d="m90.668 132.152v14.442h14.442v-14.442z" fill="#0d203b"/><path d="m90.668 114.099v14.442h14.442v-14.442z" fill="#bc3a41"/><path d="m90.668 96.0463v14.4417h14.442v-14.4417z" fill="#0d203b"/><path d="m90.668 77.9936v14.4419h14.442v-14.4419z" fill="#0d203b"/><path d="m90.668 59.9418v14.442h14.442v-14.442z" fill="#0091ea"/><path d="m90.668 41.8881v14.442h14.442v-14.442z" fill="#bc3a41"/><path d="m90.668 23.8354v14.4419h14.442v-14.4419z" fill="#0d203b"/><path d="m90.668 5.78459v14.44201h14.442v-14.44201z" fill="#bc3a41"/><path d="m108.723 168.256v14.442h14.442v-14.442z" fill="#bc3a41"/><path d="m108.719 150.203v14.442h14.442v-14.442z" fill="#0091ea"/><path d="m108.719 132.152v14.442h14.442v-14.442z" fill="#bc3a41"/><path d="m108.719 114.099v14.442h14.442v-14.442z" fill="#0091ea"/><path d="m108.719 96.0463v14.4417h14.442v-14.4417z" fill="#0d203b"/><path d="m108.719 77.9936v14.4419h14.442v-14.4419z" fill="#bc3a41"/><path d="m108.719 59.9418v14.442h14.442v-14.442z" fill="#0d203b"/><path d="m108.719 41.8881v14.442h14.442v-14.442z" fill="#0d203b"/><path d="m108.719 23.8354v14.4419h14.442v-14.4419z" fill="#bc3a41"/><path d="m108.719 5.78459v14.44201h14.442v-14.44201z" fill="#bc3a41"/><path d="m126.773 168.256v14.442h14.442v-14.442z" fill="#0d203b"/><path d="m126.773 150.203v14.442h14.442v-14.442z" fill="#0d203b"/><path d="m126.773 132.152v14.442h14.442v-14.442z" fill="#bc3a41"/><path d="m126.773 114.099v14.442h14.442v-14.442z" fill="#0091ea"/><path d="m126.773 96.0463v14.4417h14.442v-14.4417z" fill="#0091ea"/><path d="m126.773 77.9936v14.4419h14.442v-14.4419z" fill="#0091ea"/><path d="m126.773 59.9418v14.442h14.442v-14.442z" fill="#0091ea"/><path d="m126.773 41.8881v14.442h14.442v-14.442z" fill="#bc3a41"/><path d="m126.773 23.8354v14.4419h14.442v-14.4419z" fill="#0d203b"/><path d="m126.773 5.78459v14.44201h14.442v-14.44201z" fill="#bc3a41"/><path d="m144.824 168.256v14.442h14.442v-14.442z" fill="#0d203b"/><path d="m144.824 150.203v14.442h14.442v-14.442z" fill="#0091ea"/><path d="m144.824 132.152v14.442h14.442v-14.442z" fill="#bc3a41"/><path d="m144.824 114.099v14.442h14.442v-14.442z" fill="#bc3a41"/><path d="m144.824 96.0463v14.4417h14.442v-14.4417z" fill="#0d203b"/><path d="m144.824 77.9936v14.4419h14.442v-14.4419z" fill="#0d203b"/><path d="m144.824 59.9418v14.442h14.442v-14.442z" fill="#0d203b"/><path d="m144.824 41.8881v14.442h14.442v-14.442z" fill="#0d203b"/><path d="m144.824 23.8354v14.4419h14.442v-14.4419z" fill="#0d203b"/><path d="m144.824 5.78459v14.44201h14.442v-14.44201z" fill="#bc3a41"/><path d="m162.879 168.256v14.442h14.442v-14.442z" fill="#bc3a41"/><path d="m162.879 150.203v14.442h14.442v-14.442z" fill="#0091ea"/><path d="m162.879 132.152v14.442h14.442v-14.442z" fill="#0d203b"/><path d="m162.879 114.099v14.442h14.442v-14.442z" fill="#0091ea"/><path d="m162.879 96.0463v14.4417h14.442v-14.4417z" fill="#0d203b"/><path d="m162.879 77.9936v14.4419h14.442v-14.4419z" fill="#0091ea"/><path d="m162.879 59.9418v14.442h14.442v-14.442z" fill="#0091ea"/><path d="m162.879 41.8881v14.442h14.442v-14.442z" fill="#0091ea"/><path d="m162.879 23.8354v14.4419h14.442v-14.4419z" fill="#0d203b"/><path d="m162.879 5.78459v14.44201h14.442v-14.44201z" fill="#0d203b"/><path d="m180.934 168.256v14.442h14.442v-14.442z" fill="#0091ea"/><path d="m180.934 150.203v14.442h14.442v-14.442z" fill="#0d203b"/><path d="m180.934 132.152v14.442h14.442v-14.442z" fill="#0d203b"/><path d="m180.934 114.099v14.442h14.442v-14.442z" fill="#bc3a41"/><path d="m180.934 96.0463v14.4417h14.442v-14.4417z" fill="#0091ea"/><path d="m180.934 77.9936v14.4419h14.442v-14.4419z" fill="#bc3a41"/><path d="m180.934 59.9418v14.442h14.442v-14.442z" fill="#0091ea"/><path d="m180.934 41.8881v14.442h14.442v-14.442z" fill="#0091ea"/><path d="m180.934 23.8354v14.4419h14.442v-14.4419z" fill="#bc3a41"/><path d="m180.934 5.78459v14.44201h14.442v-14.44201z" fill="#0091ea"/><path d="m198.984 168.256v14.442h14.442v-14.442z" fill="#0091ea"/><path d="m198.984 150.203v14.442h14.442v-14.442z" fill="#bc3a41"/><path d="m198.984 132.152v14.442h14.442v-14.442z" fill="#0091ea"/><path d="m198.984 114.099v14.442h14.442v-14.442z" fill="#0d203b"/><path d="m198.984 96.0463v14.4417h14.442v-14.4417z" fill="#bc3a41"/><path d="m198.984 77.9936v14.4419h14.442v-14.4419z" fill="#0091ea"/><path d="m198.984 59.9418v14.442h14.442v-14.442z" fill="#bc3a41"/><path d="m198.984 41.8881v14.442h14.442v-14.442z" fill="#bc3a41"/><path d="m198.984 23.8354v14.4419h14.442v-14.4419z" fill="#0091ea"/><path d="m198.984 5.78459v14.44201h14.442v-14.44201z" fill="#0091ea"/><path d="m217.039 168.256v14.442h14.442v-14.442z" fill="#0091ea"/><path d="m217.035 150.203v14.442h14.442v-14.442z" fill="#0091ea"/><path d="m217.035 132.152v14.442h14.442v-14.442z" fill="#0d203b"/><path d="m217.035 114.099v14.442h14.442v-14.442z" fill="#0d203b"/><path d="m217.035 96.0463v14.4417h14.442v-14.4417z" fill="#bc3a41"/><path d="m217.035 77.9936v14.4419h14.442v-14.4419z" fill="#0091ea"/><path d="m217.035 59.9418v14.442h14.442v-14.442z" fill="#0091ea"/><path d="m217.035 41.8881v14.442h14.442v-14.442z" fill="#bc3a41"/><path d="m217.035 23.8354v14.4419h14.442v-14.4419z" fill="#0d203b"/><path d="m217.035 5.78459v14.44201h14.442v-14.44201z" fill="#bc3a41"/><path d="m235.09 168.256v14.442h14.442v-14.442z" fill="#bc3a41"/><path d="m235.09 150.203v14.442h14.442v-14.442z" fill="#0d203b"/><path d="m235.09 132.152v14.442h14.442v-14.442z" fill="#0d203b"/><path d="m235.09 114.099v14.442h14.442v-14.442z" fill="#bc3a41"/><path d="m235.09 96.0463v14.4417h14.442v-14.4417z" fill="#0d203b"/><path d="m235.09 77.9936v14.4419h14.442v-14.4419z" fill="#0d203b"/><path d="m235.09 59.9418v14.442h14.442v-14.442z" fill="#bc3a41"/><path d="m235.09 41.8881v14.442h14.442v-14.442z" fill="#bc3a41"/><path d="m235.09 23.8354v14.4419h14.442v-14.4419z" fill="#bc3a41"/><path d="m235.09 5.78459v14.44201h14.442v-14.44201z" fill="#0d203b"/><path d="m253.141 168.256v14.442h14.442v-14.442z" fill="#0091ea"/><path d="m253.141 150.203v14.442h14.442v-14.442z" fill="#bc3a41"/><path d="m253.141 132.152v14.442h14.442v-14.442z" fill="#0091ea"/><path d="m253.141 114.099v14.442h14.442v-14.442z" fill="#0d203b"/><path d="m253.141 96.0463v14.4417h14.442v-14.4417z" fill="#0d203b"/><path d="m253.141 77.9936v14.4419h14.442v-14.4419z" fill="#0d203b"/><path d="m253.141 59.9418v14.442h14.442v-14.442z" fill="#0091ea"/><path d="m253.141 41.8881v14.442h14.442v-14.442z" fill="#0091ea"/><path d="m253.141 23.8354v14.4419h14.442v-14.4419z" fill="#0091ea"/><path d="m253.141 5.78459v14.44201h14.442v-14.44201z" fill="#0091ea"/><path d="m271.195 168.256v14.442h14.442v-14.442z" fill="#0091ea"/><path d="m271.195 150.203v14.442h14.442v-14.442z" fill="#bc3a41"/><path d="m271.195 132.152v14.442h14.442v-14.442z" fill="#0091ea"/><path d="m271.195 114.099v14.442h14.442v-14.442z" fill="#bc3a41"/><path d="m271.195 96.0463v14.4417h14.442v-14.4417z" fill="#bc3a41"/><path d="m271.195 77.9936v14.4419h14.442v-14.4419z" fill="#bc3a41"/><path d="m271.195 59.9418v14.442h14.442v-14.442z" fill="#0d203b"/><path d="m271.195 41.8881v14.442h14.442v-14.442z" fill="#0d203b"/><path d="m271.195 23.8354v14.4419h14.442v-14.4419z" fill="#0d203b"/><path d="m271.195 5.78459v14.44201h14.442v-14.44201z" fill="#bc3a41"/><path d="m289.246 168.256v14.442h14.442v-14.442z" fill="#bc3a41"/><path d="m289.246 150.203v14.442h14.442v-14.442z" fill="#0091ea"/><path d="m289.246 132.152v14.442h14.442v-14.442z" fill="#0091ea"/><path d="m289.246 114.099v14.442h14.442v-14.442z" fill="#bc3a41"/><path d="m289.246 96.0463v14.4417h14.442v-14.4417z" fill="#bc3a41"/><path d="m289.246 77.9936v14.4419h14.442v-14.4419z" fill="#0091ea"/><path d="m289.246 59.9418v14.442h14.442v-14.442z" fill="#bc3a41"/><path d="m289.246 41.8881v14.442h14.442v-14.442z" fill="#0091ea"/><path d="m289.246 23.8354v14.4419h14.442v-14.4419z" fill="#0d203b"/><path d="m289.246 5.78459v14.44201h14.442v-14.44201z" fill="#0d203b"/><path d="m307.301 168.256v14.442h14.442v-14.442z" fill="#0d203b"/><path d="m307.297 150.203v14.442h14.442v-14.442z" fill="#bc3a41"/><path d="m307.297 132.152v14.442h14.442v-14.442z" fill="#0091ea"/><path d="m307.297 114.099v14.442h14.442v-14.442z" fill="#0091ea"/><path d="m307.297 96.0463v14.4417h14.442v-14.4417z" fill="#0091ea"/><path d="m307.297 77.9936v14.4419h14.442v-14.4419z" fill="#0d203b"/><path d="m307.297 59.9418v14.442h14.442v-14.442z" fill="#0091ea"/><path d="m307.297 41.8881v14.442h14.442v-14.442z" fill="#bc3a41"/><path d="m307.297 23.8354v14.4419h14.442v-14.4419z" fill="#0d203b"/><path d="m307.297 5.78459v14.44201h14.442v-14.44201z" fill="#0d203b"/><path d="m325.352 168.256v14.442h14.442v-14.442z" fill="#bc3a41"/><path d="m325.352 150.203v14.442h14.442v-14.442z" fill="#0091ea"/><path d="m325.352 132.152v14.442h14.442v-14.442z" fill="#0d203b"/><path d="m325.352 114.099v14.442h14.442v-14.442z" fill="#0d203b"/><path d="m325.352 96.0463v14.4417h14.442v-14.4417z" fill="#bc3a41"/><path d="m325.352 77.9936v14.4419h14.442v-14.4419z" fill="#0d203b"/><path d="m325.352 59.9418v14.442h14.442v-14.442z" fill="#bc3a41"/><path d="m325.352 41.8881v14.442h14.442v-14.442z" fill="#bc3a41"/><path d="m325.352 23.8354v14.4419h14.442v-14.4419z" fill="#0d203b"/><path d="m325.352 5.78459v14.44201h14.442v-14.44201z" fill="#0d203b"/><path d="m343.402 168.256v14.442h14.442v-14.442z" fill="#0d203b"/><path d="m343.402 150.203v14.442h14.442v-14.442z" fill="#bc3a41"/><path d="m343.402 132.152v14.442h14.442v-14.442z" fill="#0091ea"/><path d="m343.402 114.099v14.442h14.442v-14.442z" fill="#0d203b"/><path d="m343.402 96.0463v14.4417h14.442v-14.4417z" fill="#bc3a41"/><path d="m343.402 77.9936v14.4419h14.442v-14.4419z" fill="#0091ea"/><path d="m343.402 59.9418v14.442h14.442v-14.442z" fill="#0091ea"/><path d="m343.402 41.8881v14.442h14.442v-14.442z" fill="#bc3a41"/><path d="m343.402 23.8354v14.4419h14.442v-14.4419z" fill="#0091ea"/><path d="m343.402 5.78459v14.44201h14.442v-14.44201z" fill="#bc3a41"/><path d="m361.258 168.256v14.442h14.442v-14.442z" fill="#bc3a41"/><path d="m361.258 150.203v14.442h14.442v-14.442z" fill="#0d203b"/><path d="m361.258 132.152v14.442h14.442v-14.442z" fill="#0d203b"/><path d="m361.258 114.099v14.442h14.442v-14.442z" fill="#0d203b"/><path d="m361.258 96.0463v14.4417h14.442v-14.4417z" fill="#0d203b"/><path d="m361.258 77.9936v14.4419h14.442v-14.4419z" fill="#bc3a41"/><path d="m361.258 59.9418v14.442h14.442v-14.442z" fill="#bc3a41"/><path d="m361.258 41.8881v14.442h14.442v-14.442z" fill="#bc3a41"/><path d="m361.258 23.8354v14.4419h14.442v-14.4419z" fill="#0091ea"/><path d="m361.258 5.78459v14.44201h14.442v-14.44201z" fill="#0091ea"/><path d="m379.312 168.256v14.442h14.442v-14.442z" fill="#0091ea"/><path d="m379.312 150.203v14.442h14.442v-14.442z" fill="#bc3a41"/><path d="m379.312 132.152v14.442h14.442v-14.442z" fill="#0091ea"/><path d="m379.312 114.099v14.442h14.442v-14.442z" fill="#0091ea"/><path d="m379.312 96.0463v14.4417h14.442v-14.4417z" fill="#0091ea"/><path d="m379.312 77.9936v14.4419h14.442v-14.4419z" fill="#0091ea"/><path d="m379.312 59.9418v14.442h14.442v-14.442z" fill="#0d203b"/><path d="m379.312 41.8881v14.442h14.442v-14.442z" fill="#0d203b"/><path d="m379.312 23.8354v14.4419h14.442v-14.4419z" fill="#0d203b"/><path d="m379.312 5.78459v14.44201h14.442v-14.44201z" fill="#0091ea"/><path d="m397.367 168.256v14.442h14.442v-14.442z" fill="#0091ea"/><path d="m397.363 150.203v14.442h14.442v-14.442z" fill="#0091ea"/><path d="m397.363 132.152v14.442h14.442v-14.442z" fill="#bc3a41"/><path d="m397.363 114.099v14.442h14.442v-14.442z" fill="#bc3a41"/><path d="m397.363 96.0463v14.4417h14.442v-14.4417z" fill="#bc3a41"/><path d="m397.363 77.9936v14.4419h14.442v-14.4419z" fill="#0d203b"/><path d="m397.363 59.9418v14.442h14.442v-14.442z" fill="#0091ea"/><path d="m397.363 41.8881v14.442h14.442v-14.442z" fill="#bc3a41"/><path d="m397.363 23.8354v14.4419h14.442v-14.4419z" fill="#0d203b"/><path d="m397.363 5.78459v14.44201h14.442v-14.44201z" fill="#0091ea"/><path d="m415.418 168.256v14.442h14.442v-14.442z" fill="#bc3a41"/><path d="m415.418 150.203v14.442h14.442v-14.442z" fill="#0091ea"/><path d="m415.418 132.152v14.442h14.442v-14.442z" fill="#0d203b"/><path d="m415.418 114.099v14.442h14.442v-14.442z" fill="#0d203b"/><path d="m415.418 96.0463v14.4417h14.442v-14.4417z" fill="#bc3a41"/><path d="m415.418 77.9936v14.4419h14.442v-14.4419z" fill="#bc3a41"/><path d="m415.418 59.9418v14.442h14.442v-14.442z" fill="#0d203b"/><path d="m415.418 41.8881v14.442h14.442v-14.442z" fill="#bc3a41"/><path d="m415.418 23.8354v14.4419h14.442v-14.4419z" fill="#0091ea"/><path d="m415.418 5.78459v14.44201h14.442v-14.44201z" fill="#0091ea"/><path d="m433.469 168.256v14.442h14.442v-14.442z" fill="#0d203b"/><path d="m433.469 150.203v14.442h14.442v-14.442z" fill="#bc3a41"/><path d="m433.469 132.152v14.442h14.442v-14.442z" fill="#0d203b"/><path d="m433.469 114.099v14.442h14.442v-14.442z" fill="#0d203b"/><path d="m433.469 96.0463v14.4417h14.442v-14.4417z" fill="#bc3a41"/><path d="m433.469 77.9936v14.4419h14.442v-14.4419z" fill="#0d203b"/><path d="m433.469 59.9418v14.442h14.442v-14.442z" fill="#bc3a41"/><path d="m433.469 41.8881v14.442h14.442v-14.442z" fill="#bc3a41"/><path d="m433.469 23.8354v14.4419h14.442v-14.4419z" fill="#bc3a41"/><path d="m433.469 5.78459v14.44201h14.442v-14.44201z" fill="#0091ea"/><path d="m451.523 168.256v14.442h14.442v-14.442z" fill="#0091ea"/><path d="m451.523 150.203v14.442h14.442v-14.442z" fill="#0091ea"/><path d="m451.523 132.152v14.442h14.442v-14.442z" fill="#0d203b"/><path d="m451.523 114.099v14.442h14.442v-14.442z" fill="#bc3a41"/><path d="m451.523 96.0463v14.4417h14.442v-14.4417z" fill="#0d203b"/><path d="m451.523 77.9936v14.4419h14.442v-14.4419z" fill="#0d203b"/><path d="m451.523 59.9418v14.442h14.442v-14.442z" fill="#0091ea"/><path d="m451.523 41.8881v14.442h14.442v-14.442z" fill="#bc3a41"/><path d="m451.523 23.8354v14.4419h14.442v-14.4419z" fill="#0d203b"/><path d="m451.523 5.78459v14.44201h14.442v-14.44201z" fill="#bc3a41"/><path d="m469.574 168.256v14.442h14.442v-14.442z" fill="#bc3a41"/><path d="m469.574 150.203v14.442h14.442v-14.442z" fill="#0091ea"/><path d="m469.574 132.152v14.442h14.442v-14.442z" fill="#bc3a41"/><path d="m469.574 114.099v14.442h14.442v-14.442z" fill="#0091ea"/><path d="m469.574 96.0463v14.4417h14.442v-14.4417z" fill="#0d203b"/><path d="m469.574 77.9936v14.4419h14.442v-14.4419z" fill="#bc3a41"/><path d="m469.574 59.9418v14.442h14.442v-14.442z" fill="#0d203b"/><path d="m469.574 41.8881v14.442h14.442v-14.442z" fill="#0d203b"/><path d="m469.574 23.8354v14.4419h14.442v-14.4419z" fill="#bc3a41"/><path d="m469.574 5.78459v14.44201h14.442v-14.44201z" fill="#bc3a41"/><path d="m487.629 168.256v14.442h14.442v-14.442z" fill="#0d203b"/><path d="m487.625 150.203v14.442h14.442v-14.442z" fill="#0d203b"/><path d="m487.625 132.152v14.442h14.442v-14.442z" fill="#bc3a41"/><path d="m487.625 114.099v14.442h14.442v-14.442z" fill="#0091ea"/><path d="m487.625 96.0463v14.4417h14.442v-14.4417z" fill="#0091ea"/><path d="m487.625 77.9936v14.4419h14.442v-14.4419z" fill="#0091ea"/><path d="m487.625 59.9418v14.442h14.442v-14.442z" fill="#0091ea"/><path d="m487.625 41.8881v14.442h14.442v-14.442z" fill="#bc3a41"/><path d="m487.625 23.8354v14.4419h14.442v-14.4419z" fill="#0d203b"/><path d="m487.625 5.78459v14.44201h14.442v-14.44201z" fill="#bc3a41"/><path d="m505.68 168.256v14.442h14.442v-14.442z" fill="#0d203b"/><path d="m505.68 150.203v14.442h14.442v-14.442z" fill="#0091ea"/><path d="m505.68 132.152v14.442h14.442v-14.442z" fill="#bc3a41"/><path d="m505.68 114.099v14.442h14.442v-14.442z" fill="#bc3a41"/><path d="m505.68 96.0463v14.4417h14.442v-14.4417z" fill="#0d203b"/><path d="m505.68 77.9936v14.4419h14.442v-14.4419z" fill="#0d203b"/><path d="m505.68 59.9418v14.442h14.442v-14.442z" fill="#0d203b"/><path d="m505.68 41.8881v14.442h14.442v-14.442z" fill="#0d203b"/><path d="m505.68 23.8354v14.4419h14.442v-14.4419z" fill="#0d203b"/><path d="m505.68 5.78459v14.44201h14.442v-14.44201z" fill="#bc3a41"/><path d="m523.734 168.256v14.442h14.442v-14.442z" fill="#bc3a41"/><path d="m523.73 150.203v14.442h14.442v-14.442z" fill="#0091ea"/><path d="m523.73 132.152v14.442h14.442v-14.442z" fill="#0d203b"/><path d="m523.73 114.099v14.442h14.442v-14.442z" fill="#0091ea"/><path d="m523.73 96.0463v14.4417h14.442v-14.4417z" fill="#0d203b"/><path d="m523.73 77.9936v14.4419h14.442v-14.4419z" fill="#0091ea"/><path d="m523.73 59.9418v14.442h14.442v-14.442z" fill="#0091ea"/><path d="m523.73 41.8881v14.442h14.442v-14.442z" fill="#0091ea"/><path d="m523.73 23.8354v14.4419h14.442v-14.4419z" fill="#0d203b"/><path d="m523.73 5.78459v14.44201h14.442v-14.44201z" fill="#0d203b"/><path d="m541.785 168.256v14.442h14.442v-14.442z" fill="#0091ea"/><path d="m541.785 150.203v14.442h14.442v-14.442z" fill="#0d203b"/><path d="m541.785 132.152v14.442h14.442v-14.442z" fill="#0d203b"/><path d="m541.785 114.099v14.442h14.442v-14.442z" fill="#bc3a41"/><path d="m541.785 96.0463v14.4417h14.442v-14.4417z" fill="#0091ea"/><path d="m541.785 77.9936v14.4419h14.442v-14.4419z" fill="#bc3a41"/><path d="m541.785 59.9418v14.442h14.442v-14.442z" fill="#0091ea"/><path d="m541.785 41.8881v14.442h14.442v-14.442z" fill="#0091ea"/><path d="m541.785 23.8354v14.4419h14.442v-14.4419z" fill="#bc3a41"/><path d="m541.785 5.78459v14.44201h14.442v-14.44201z" fill="#0091ea"/><path d="m559.836 168.256v14.442h14.442v-14.442z" fill="#0091ea"/><path d="m559.836 150.203v14.442h14.442v-14.442z" fill="#bc3a41"/><path d="m559.836 132.152v14.442h14.442v-14.442z" fill="#0091ea"/><path d="m559.836 114.099v14.442h14.442v-14.442z" fill="#0d203b"/><path d="m559.836 96.0463v14.4417h14.442v-14.4417z" fill="#bc3a41"/><path d="m559.836 77.9936v14.4419h14.442v-14.4419z" fill="#0091ea"/><path d="m559.836 59.9418v14.442h14.442v-14.442z" fill="#bc3a41"/><path d="m559.836 41.8881v14.442h14.442v-14.442z" fill="#bc3a41"/><path d="m559.836 23.8354v14.4419h14.442v-14.4419z" fill="#0091ea"/><path d="m559.836 5.78459v14.44201h14.442v-14.44201z" fill="#0091ea"/><path d="m577.891 168.256v14.442h14.442v-14.442z" fill="#0091ea"/><path d="m577.891 150.203v14.442h14.442v-14.442z" fill="#0091ea"/><path d="m577.891 132.152v14.442h14.442v-14.442z" fill="#0d203b"/><path d="m577.891 114.099v14.442h14.442v-14.442z" fill="#0d203b"/><path d="m577.891 96.0463v14.4417h14.442v-14.4417z" fill="#bc3a41"/><path d="m577.891 77.9936v14.4419h14.442v-14.4419z" fill="#0091ea"/><path d="m577.891 59.9418v14.442h14.442v-14.442z" fill="#0091ea"/><path d="m577.891 41.8881v14.442h14.442v-14.442z" fill="#bc3a41"/><path d="m577.891 23.8354v14.4419h14.442v-14.4419z" fill="#0d203b"/><path d="m577.891 5.78459v14.44201h14.442v-14.44201z" fill="#bc3a41"/><path d="m595.941 168.256v14.442h14.442v-14.442z" fill="#bc3a41"/><path d="m595.941 150.203v14.442h14.442v-14.442z" fill="#0d203b"/><path d="m595.941 132.152v14.442h14.442v-14.442z" fill="#0d203b"/><path d="m595.941 114.099v14.442h14.442v-14.442z" fill="#bc3a41"/><path d="m595.941 96.0463v14.4417h14.442v-14.4417z" fill="#0d203b"/><path d="m595.941 77.9936v14.4419h14.442v-14.4419z" fill="#0d203b"/><path d="m595.941 59.9418v14.442h14.442v-14.442z" fill="#bc3a41"/><path d="m595.941 41.8881v14.442h14.442v-14.442z" fill="#bc3a41"/><path d="m595.941 23.8354v14.4419h14.442v-14.4419z" fill="#bc3a41"/><path d="m595.941 5.78459v14.44201h14.442v-14.44201z" fill="#0d203b"/><path d="m613.996 168.256v14.442h14.442v-14.442z" fill="#0091ea"/><path d="m613.992 150.203v14.442h14.442v-14.442z" fill="#bc3a41"/><path d="m613.992 132.152v14.442h14.442v-14.442z" fill="#0091ea"/><path d="m613.992 114.099v14.442h14.442v-14.442z" fill="#0d203b"/><path d="m613.992 96.0463v14.4417h14.442v-14.4417z" fill="#0d203b"/><path d="m613.992 77.9936v14.4419h14.442v-14.4419z" fill="#0d203b"/><path d="m613.992 59.9418v14.442h14.442v-14.442z" fill="#0091ea"/><path d="m613.992 41.8881v14.442h14.442v-14.442z" fill="#0091ea"/><path d="m613.992 23.8354v14.4419h14.442v-14.4419z" fill="#0091ea"/><path d="m613.992 5.78459v14.44201h14.442v-14.44201z" fill="#0091ea"/><path d="m632.051 168.256v14.442h14.442v-14.442z" fill="#0091ea"/><path d="m632.047 150.203v14.442h14.442v-14.442z" fill="#bc3a41"/><path d="m632.047 132.152v14.442h14.442v-14.442z" fill="#0091ea"/><path d="m632.047 114.099v14.442h14.442v-14.442z" fill="#bc3a41"/><path d="m632.047 96.0463v14.4417h14.442v-14.4417z" fill="#bc3a41"/><path d="m632.047 77.9936v14.4419h14.442v-14.4419z" fill="#bc3a41"/><path d="m632.047 59.9418v14.442h14.442v-14.442z" fill="#0d203b"/><path d="m632.047 41.8881v14.442h14.442v-14.442z" fill="#0d203b"/><path d="m632.047 23.8354v14.4419h14.442v-14.4419z" fill="#0d203b"/><path d="m632.047 5.78459v14.44201h14.442v-14.44201z" fill="#bc3a41"/><path d="m650.102 168.256v14.442h14.442v-14.442z" fill="#bc3a41"/><path d="m650.102 150.203v14.442h14.442v-14.442z" fill="#0091ea"/><path d="m650.102 132.152v14.442h14.442v-14.442z" fill="#0091ea"/><path d="m650.102 114.099v14.442h14.442v-14.442z" fill="#bc3a41"/><path d="m650.102 96.0463v14.4417h14.442v-14.4417z" fill="#bc3a41"/><path d="m650.102 77.9936v14.4419h14.442v-14.4419z" fill="#0091ea"/><path d="m650.102 59.9418v14.442h14.442v-14.442z" fill="#bc3a41"/><path d="m650.102 41.8881v14.442h14.442v-14.442z" fill="#0091ea"/><path d="m650.102 23.8354v14.4419h14.442v-14.4419z" fill="#0d203b"/><path d="m650.102 5.78459v14.44201h14.442v-14.44201z" fill="#0d203b"/><path d="m668.152 168.256v14.442h14.442v-14.442z" fill="#0d203b"/><path d="m668.152 150.203v14.442h14.442v-14.442z" fill="#bc3a41"/><path d="m668.152 132.152v14.442h14.442v-14.442z" fill="#0091ea"/><path d="m668.152 114.099v14.442h14.442v-14.442z" fill="#0091ea"/><path d="m668.152 96.0463v14.4417h14.442v-14.4417z" fill="#0091ea"/><path d="m668.152 77.9936v14.4419h14.442v-14.4419z" fill="#0d203b"/><path d="m668.152 59.9418v14.442h14.442v-14.442z" fill="#0091ea"/><path d="m668.152 41.8881v14.442h14.442v-14.442z" fill="#bc3a41"/><path d="m668.152 23.8354v14.4419h14.442v-14.4419z" fill="#0d203b"/><path d="m668.152 5.78459v14.44201h14.442v-14.44201z" fill="#0d203b"/><path d="m686.203 168.256v14.442h14.442v-14.442z" fill="#bc3a41"/><path d="m686.203 150.203v14.442h14.442v-14.442z" fill="#0091ea"/><path d="m686.203 132.152v14.442h14.442v-14.442z" fill="#0d203b"/><path d="m686.203 114.099v14.442h14.442v-14.442z" fill="#0d203b"/><path d="m686.203 96.0463v14.4417h14.442v-14.4417z" fill="#bc3a41"/><path d="m686.203 77.9936v14.4419h14.442v-14.4419z" fill="#0d203b"/><path d="m686.203 59.9418v14.442h14.442v-14.442z" fill="#bc3a41"/><path d="m686.203 41.8881v14.442h14.442v-14.442z" fill="#bc3a41"/><path d="m686.203 23.8354v14.4419h14.442v-14.4419z" fill="#0d203b"/><path d="m686.203 5.78459v14.44201h14.442v-14.44201z" fill="#0d203b"/><path d="m704.258 168.256v14.442h14.442v-14.442z" fill="#0d203b"/><path d="m704.258 150.203v14.442h14.442v-14.442z" fill="#bc3a41"/><path d="m704.258 132.152v14.442h14.442v-14.442z" fill="#0091ea"/><path d="m704.258 114.099v14.442h14.442v-14.442z" fill="#0d203b"/><path d="m704.258 96.0463v14.4417h14.442v-14.4417z" fill="#bc3a41"/><path d="m704.258 77.9936v14.4419h14.442v-14.4419z" fill="#0091ea"/><path d="m704.258 59.9418v14.442h14.442v-14.442z" fill="#0091ea"/><path d="m704.258 41.8881v14.442h14.442v-14.442z" fill="#bc3a41"/><path d="m704.258 23.8354v14.4419h14.442v-14.4419z" fill="#0091ea"/><path d="m704.258 5.78459v14.44201h14.442v-14.44201z" fill="#bc3a41"/><path d="m722.113 168.256v14.442h14.442v-14.442z" fill="#bc3a41"/><path d="m722.113 150.203v14.442h14.442v-14.442z" fill="#0d203b"/><path d="m722.113 132.152v14.442h14.442v-14.442z" fill="#0d203b"/><path d="m722.113 114.099v14.442h14.442v-14.442z" fill="#0d203b"/><path d="m722.113 96.0463v14.4417h14.442v-14.4417z" fill="#0d203b"/><path d="m722.113 77.9936v14.4419h14.442v-14.4419z" fill="#bc3a41"/><path d="m722.113 59.9418v14.442h14.442v-14.442z" fill="#bc3a41"/><path d="m722.113 41.8881v14.442h14.442v-14.442z" fill="#bc3a41"/><path d="m722.113 23.8354v14.4419h14.442v-14.4419z" fill="#0091ea"/><path d="m722.113 5.78459v14.44201h14.442v-14.44201z" fill="#0091ea"/><path d="m740.164 168.256v14.442h14.442v-14.442z" fill="#0091ea"/><path d="m740.164 150.203v14.442h14.442v-14.442z" fill="#bc3a41"/><path d="m740.164 132.152v14.442h14.442v-14.442z" fill="#0091ea"/><path d="m740.164 114.099v14.442h14.442v-14.442z" fill="#0091ea"/><path d="m740.164 96.0463v14.4417h14.442v-14.4417z" fill="#0091ea"/><path d="m740.164 77.9936v14.4419h14.442v-14.4419z" fill="#0091ea"/><path d="m740.164 59.9418v14.442h14.442v-14.442z" fill="#0d203b"/><path d="m740.164 41.8881v14.442h14.442v-14.442z" fill="#0d203b"/><path d="m740.164 23.8354v14.4419h14.442v-14.4419z" fill="#0d203b"/><path d="m740.164 5.78459v14.44201h14.442v-14.44201z" fill="#0091ea"/><path d="m758.215 168.256v14.442h14.442v-14.442z" fill="#0091ea"/><path d="m758.215 150.203v14.442h14.442v-14.442z" fill="#0091ea"/><path d="m758.215 132.152v14.442h14.442v-14.442z" fill="#bc3a41"/><path d="m758.215 114.099v14.442h14.442v-14.442z" fill="#bc3a41"/><path d="m758.215 96.0463v14.4417h14.442v-14.4417z" fill="#bc3a41"/><path d="m758.215 77.9936v14.4419h14.442v-14.4419z" fill="#0d203b"/><path d="m758.215 59.9418v14.442h14.442v-14.442z" fill="#0091ea"/><path d="m758.215 41.8881v14.442h14.442v-14.442z" fill="#bc3a41"/><path d="m758.215 23.8354v14.4419h14.442v-14.4419z" fill="#0d203b"/><path d="m758.215 5.78459v14.44201h14.442v-14.44201z" fill="#0091ea"/><path d="m776.27 168.256v14.442h14.442v-14.442z" fill="#bc3a41"/><path d="m776.27 150.203v14.442h14.442v-14.442z" fill="#0091ea"/><path d="m776.27 132.152v14.442h14.442v-14.442z" fill="#0d203b"/><path d="m776.27 114.099v14.442h14.442v-14.442z" fill="#0d203b"/><path d="m776.27 96.0463v14.4417h14.442v-14.4417z" fill="#bc3a41"/><path d="m776.27 77.9936v14.4419h14.442v-14.4419z" fill="#bc3a41"/><path d="m776.27 59.9418v14.442h14.442v-14.442z" fill="#0d203b"/><path d="m776.27 41.8881v14.442h14.442v-14.442z" fill="#bc3a41"/><path d="m776.27 23.8354v14.4419h14.442v-14.4419z" fill="#0091ea"/><path d="m776.27 5.78459v14.44201h14.442v-14.44201z" fill="#0091ea"/><path d="m794.324 168.256v14.442h14.442v-14.442z" fill="#0d203b"/><path d="m794.324 150.203v14.442h14.442v-14.442z" fill="#bc3a41"/><path d="m794.324 132.152v14.442h14.442v-14.442z" fill="#0d203b"/><path d="m794.324 114.099v14.442h14.442v-14.442z" fill="#0d203b"/><path d="m794.324 96.0463v14.4417h14.442v-14.4417z" fill="#bc3a41"/><path d="m794.324 77.9936v14.4419h14.442v-14.4419z" fill="#0d203b"/><path d="m794.324 59.9418v14.442h14.442v-14.442z" fill="#bc3a41"/><path d="m794.324 41.8881v14.442h14.442v-14.442z" fill="#bc3a41"/><path d="m794.324 23.8354v14.4419h14.442v-14.4419z" fill="#bc3a41"/><path d="m794.324 5.78459v14.44201h14.442v-14.44201z" fill="#0091ea"/><path d="m812.375 168.256v14.442h14.442v-14.442z" fill="#0091ea"/><path d="m812.375 150.203v14.442h14.442v-14.442z" fill="#0091ea"/><path d="m812.375 132.152v14.442h14.442v-14.442z" fill="#0d203b"/><path d="m812.375 114.099v14.442h14.442v-14.442z" fill="#bc3a41"/><path d="m812.375 96.0463v14.4417h14.442v-14.4417z" fill="#0d203b"/><path d="m812.375 77.9936v14.4419h14.442v-14.4419z" fill="#0d203b"/><path d="m812.375 59.9418v14.442h14.442v-14.442z" fill="#0091ea"/><path d="m812.375 41.8881v14.442h14.442v-14.442z" fill="#bc3a41"/><path d="m812.375 23.8354v14.4419h14.442v-14.4419z" fill="#0d203b"/><path d="m812.375 5.78459v14.44201h14.442v-14.44201z" fill="#bc3a41"/><path d="m830.426 168.256v14.442h14.442v-14.442z" fill="#bc3a41"/><path d="m830.426 150.203v14.442h14.442v-14.442z" fill="#0091ea"/><path d="m830.426 132.152v14.442h14.442v-14.442z" fill="#bc3a41"/><path d="m830.426 114.099v14.442h14.442v-14.442z" fill="#0091ea"/><path d="m830.426 96.0463v14.4417h14.442v-14.4417z" fill="#0d203b"/><path d="m830.426 77.9936v14.4419h14.442v-14.4419z" fill="#bc3a41"/><path d="m830.426 59.9418v14.442h14.442v-14.442z" fill="#0d203b"/><path d="m830.426 41.8881v14.442h14.442v-14.442z" fill="#0d203b"/><path d="m830.426 23.8354v14.4419h14.442v-14.4419z" fill="#bc3a41"/><path d="m830.426 5.78459v14.44201h14.442v-14.44201z" fill="#bc3a41"/><path d="m848.48 168.256v14.442h14.442v-14.442z" fill="#0d203b"/><path d="m848.48 150.203v14.442h14.442v-14.442z" fill="#0d203b"/><path d="m848.48 132.152v14.442h14.442v-14.442z" fill="#bc3a41"/><path d="m848.48 114.099v14.442h14.442v-14.442z" fill="#0091ea"/><path d="m848.48 96.0463v14.4417h14.442v-14.4417z" fill="#0091ea"/><path d="m848.48 77.9936v14.4419h14.442v-14.4419z" fill="#0091ea"/><path d="m848.48 59.9418v14.442h14.442v-14.442z" fill="#0091ea"/><path d="m848.48 41.8881v14.442h14.442v-14.442z" fill="#bc3a41"/><path d="m848.48 23.8354v14.4419h14.442v-14.4419z" fill="#0d203b"/><path d="m848.48 5.78459v14.44201h14.442v-14.44201z" fill="#bc3a41"/><path d="m866.535 168.256v14.442h14.442v-14.442z" fill="#0d203b"/><path d="m866.531 150.203v14.442h14.442v-14.442z" fill="#0091ea"/><path d="m866.531 132.152v14.442h14.442v-14.442z" fill="#bc3a41"/><path d="m866.531 114.099v14.442h14.442v-14.442z" fill="#bc3a41"/><path d="m866.531 96.0463v14.4417h14.442v-14.4417z" fill="#0d203b"/><path d="m866.531 77.9936v14.4419h14.442v-14.4419z" fill="#0d203b"/><path d="m866.531 59.9418v14.442h14.442v-14.442z" fill="#0d203b"/><path d="m866.531 41.8881v14.442h14.442v-14.442z" fill="#0d203b"/><path d="m866.531 23.8354v14.4419h14.442v-14.4419z" fill="#0d203b"/><path d="m866.531 5.78459v14.44201h14.442v-14.44201z" fill="#bc3a41"/><path d="m884.582 168.256v14.442h14.442v-14.442z" fill="#bc3a41"/><path d="m884.582 150.203v14.442h14.442v-14.442z" fill="#0091ea"/><path d="m884.582 132.152v14.442h14.442v-14.442z" fill="#0d203b"/><path d="m884.582 114.099v14.442h14.442v-14.442z" fill="#0091ea"/><path d="m884.582 96.0463v14.4417h14.442v-14.4417z" fill="#0d203b"/><path d="m884.582 77.9936v14.4419h14.442v-14.4419z" fill="#0091ea"/><path d="m884.582 59.9418v14.442h14.442v-14.442z" fill="#0091ea"/><path d="m884.582 41.8881v14.442h14.442v-14.442z" fill="#0091ea"/><path d="m884.582 23.8354v14.4419h14.442v-14.4419z" fill="#0d203b"/><path d="m884.582 5.78459v14.44201h14.442v-14.44201z" fill="#0d203b"/><path d="m902.637 168.256v14.442h14.442v-14.442z" fill="#0091ea"/><path d="m902.637 150.203v14.442h14.442v-14.442z" fill="#0d203b"/><path d="m902.637 132.152v14.442h14.442v-14.442z" fill="#0d203b"/><path d="m902.637 114.099v14.442h14.442v-14.442z" fill="#bc3a41"/><path d="m902.637 96.0463v14.4417h14.442v-14.4417z" fill="#0091ea"/><path d="m902.637 77.9936v14.4419h14.442v-14.4419z" fill="#bc3a41"/><path d="m902.637 59.9418v14.442h14.442v-14.442z" fill="#0091ea"/><path d="m902.637 41.8881v14.442h14.442v-14.442z" fill="#0091ea"/><path d="m902.637 23.8354v14.4419h14.442v-14.4419z" fill="#bc3a41"/><path d="m902.637 5.78459v14.44201h14.442v-14.44201z" fill="#0091ea"/><path d="m920.691 168.256v14.442h14.442v-14.442z" fill="#0091ea"/><path d="m920.691 150.203v14.442h14.442v-14.442z" fill="#bc3a41"/><path d="m920.691 132.152v14.442h14.442v-14.442z" fill="#0091ea"/><path d="m920.691 114.099v14.442h14.442v-14.442z" fill="#0d203b"/><path d="m920.691 96.0463v14.4417h14.442v-14.4417z" fill="#bc3a41"/><path d="m920.691 77.9936v14.4419h14.442v-14.4419z" fill="#0091ea"/><path d="m920.691 59.9418v14.442h14.442v-14.442z" fill="#bc3a41"/><path d="m920.691 41.8881v14.442h14.442v-14.442z" fill="#bc3a41"/><path d="m920.691 23.8354v14.4419h14.442v-14.4419z" fill="#0091ea"/><path d="m920.691 5.78459v14.44201h14.442v-14.44201z" fill="#0091ea"/><path d="m938.742 168.256v14.442h14.442v-14.442z" fill="#0091ea"/><path d="m938.742 150.203v14.442h14.442v-14.442z" fill="#0091ea"/><path d="m938.742 132.152v14.442h14.442v-14.442z" fill="#0d203b"/><path d="m938.742 114.099v14.442h14.442v-14.442z" fill="#0d203b"/><path d="m938.742 96.0463v14.4417h14.442v-14.4417z" fill="#bc3a41"/><path d="m938.742 77.9936v14.4419h14.442v-14.4419z" fill="#0091ea"/><path d="m938.742 59.9418v14.442h14.442v-14.442z" fill="#0091ea"/><path d="m938.742 41.8881v14.442h14.442v-14.442z" fill="#bc3a41"/><path d="m938.742 23.8354v14.4419h14.442v-14.4419z" fill="#0d203b"/><path d="m938.742 5.78459v14.44201h14.442v-14.44201z" fill="#bc3a41"/><path d="m956.797 168.256v14.442h14.442v-14.442z" fill="#bc3a41"/><path d="m956.793 150.203v14.442h14.442v-14.442z" fill="#0d203b"/><path d="m956.793 132.152v14.442h14.442v-14.442z" fill="#0d203b"/><path d="m956.793 114.099v14.442h14.442v-14.442z" fill="#bc3a41"/><path d="m956.793 96.0463v14.4417h14.442v-14.4417z" fill="#0d203b"/><path d="m956.793 77.9936v14.4419h14.442v-14.4419z" fill="#0d203b"/><path d="m956.793 59.9418v14.442h14.442v-14.442z" fill="#bc3a41"/><path d="m956.793 41.8881v14.442h14.442v-14.442z" fill="#bc3a41"/><path d="m956.793 23.8354v14.4419h14.442v-14.4419z" fill="#bc3a41"/><path d="m956.793 5.78459v14.44201h14.442v-14.44201z" fill="#0d203b"/><path d="m974.848 168.256v14.442h14.442v-14.442z" fill="#0091ea"/><path d="m974.848 150.203v14.442h14.442v-14.442z" fill="#bc3a41"/><path d="m974.848 132.152v14.442h14.442v-14.442z" fill="#0091ea"/><path d="m974.848 114.099v14.442h14.442v-14.442z" fill="#0d203b"/><path d="m974.848 96.0463v14.4417h14.442v-14.4417z" fill="#0d203b"/><path d="m974.848 77.9936v14.4419h14.442v-14.4419z" fill="#0d203b"/><path d="m974.848 59.9418v14.442h14.442v-14.442z" fill="#0091ea"/><path d="m974.848 41.8881v14.442h14.442v-14.442z" fill="#0091ea"/><path d="m974.848 23.8354v14.4419h14.442v-14.4419z" fill="#0091ea"/><path d="m974.848 5.78459v14.44201h14.442v-14.44201z" fill="#0091ea"/><path d="m992.902 168.256v14.442h14.438v-14.442z" fill="#0091ea"/><path d="m992.902 150.203v14.442h14.438v-14.442z" fill="#bc3a41"/><path d="m992.902 132.152v14.442h14.438v-14.442z" fill="#0091ea"/><path d="m992.902 114.099v14.442h14.438v-14.442z" fill="#bc3a41"/><path d="m992.902 96.0463v14.4417h14.438v-14.4417z" fill="#bc3a41"/><path d="m992.902 77.9936v14.4419h14.438v-14.4419z" fill="#bc3a41"/><path d="m992.902 59.9418v14.442h14.438v-14.442z" fill="#0d203b"/><path d="m992.902 41.8881v14.442h14.438v-14.442z" fill="#0d203b"/><path d="m992.902 23.8354v14.4419h14.438v-14.4419z" fill="#0d203b"/><path d="m992.902 5.78459v14.44201h14.438v-14.44201z" fill="#bc3a41"/><path d="m1010.95 168.256v14.442h14.45v-14.442z" fill="#bc3a41"/><path d="m1010.95 150.203v14.442h14.45v-14.442z" fill="#0091ea"/><path d="m1010.95 132.152v14.442h14.45v-14.442z" fill="#0091ea"/><path d="m1010.95 114.099v14.442h14.45v-14.442z" fill="#bc3a41"/><path d="m1010.95 96.0463v14.4417h14.45v-14.4417z" fill="#bc3a41"/><path d="m1010.95 77.9936v14.4419h14.45v-14.4419z" fill="#0091ea"/><path d="m1010.95 59.9418v14.442h14.45v-14.442z" fill="#bc3a41"/><path d="m1010.95 41.8881v14.442h14.45v-14.442z" fill="#0091ea"/><path d="m1010.95 23.8354v14.4419h14.45v-14.4419z" fill="#0d203b"/><path d="m1010.95 5.78459v14.44201h14.45v-14.44201z" fill="#0d203b"/><path d="m1029 168.256v14.442h14.45v-14.442z" fill="#0d203b"/><path d="m1029 150.203v14.442h14.45v-14.442z" fill="#bc3a41"/><path d="m1029 132.152v14.442h14.45v-14.442z" fill="#0091ea"/><path d="m1029 114.099v14.442h14.45v-14.442z" fill="#0091ea"/><path d="m1029 96.0463v14.4417h14.45v-14.4417z" fill="#0091ea"/><path d="m1029 77.9936v14.4419h14.45v-14.4419z" fill="#0d203b"/><path d="m1029 59.9418v14.442h14.45v-14.442z" fill="#0091ea"/><path d="m1029 41.8881v14.442h14.45v-14.442z" fill="#bc3a41"/><path d="m1029 23.8354v14.4419h14.45v-14.4419z" fill="#0d203b"/><path d="m1029 5.78459v14.44201h14.45v-14.44201z" fill="#0d203b"/><path d="m1047.06 168.256v14.442h14.44v-14.442z" fill="#bc3a41"/><path d="m1047.06 150.203v14.442h14.44v-14.442z" fill="#0091ea"/><path d="m1047.06 132.152v14.442h14.44v-14.442z" fill="#0d203b"/><path d="m1047.06 114.099v14.442h14.44v-14.442z" fill="#0d203b"/><path d="m1047.06 96.0463v14.4417h14.44v-14.4417z" fill="#bc3a41"/><path d="m1047.06 77.9936v14.4419h14.44v-14.4419z" fill="#0d203b"/><path d="m1047.06 59.9418v14.442h14.44v-14.442z" fill="#bc3a41"/><path d="m1047.06 41.8881v14.442h14.44v-14.442z" fill="#bc3a41"/><path d="m1047.06 23.8354v14.4419h14.44v-14.4419z" fill="#0d203b"/><path d="m1047.06 5.78459v14.44201h14.44v-14.44201z" fill="#0d203b"/><path d="m1065.11 168.256v14.442h14.44v-14.442z" fill="#0d203b"/><path d="m1065.11 150.203v14.442h14.44v-14.442z" fill="#bc3a41"/><path d="m1065.11 132.152v14.442h14.44v-14.442z" fill="#0091ea"/><path d="m1065.11 114.099v14.442h14.44v-14.442z" fill="#0d203b"/><path d="m1065.11 96.0463v14.4417h14.44v-14.4417z" fill="#bc3a41"/><path d="m1065.11 77.9936v14.4419h14.44v-14.4419z" fill="#0091ea"/><path d="m1065.11 59.9418v14.442h14.44v-14.442z" fill="#0091ea"/><path d="m1065.11 41.8881v14.442h14.44v-14.442z" fill="#bc3a41"/><path d="m1065.11 23.8354v14.4419h14.44v-14.4419z" fill="#0091ea"/><path d="m1065.11 5.78459v14.44201h14.44v-14.44201z" fill="#bc3a41"/><path d="m1082.97 168.256v14.442h14.44v-14.442z" fill="#bc3a41"/><path d="m1082.96 150.203v14.442h14.45v-14.442z" fill="#0d203b"/><path d="m1082.96 132.152v14.442h14.45v-14.442z" fill="#0d203b"/><path d="m1082.96 114.099v14.442h14.45v-14.442z" fill="#0d203b"/><path d="m1082.96 96.0463v14.4417h14.45v-14.4417z" fill="#0d203b"/><path d="m1082.96 77.9936v14.4419h14.45v-14.4419z" fill="#bc3a41"/><path d="m1082.96 59.9418v14.442h14.45v-14.442z" fill="#bc3a41"/><path d="m1082.96 41.8881v14.442h14.45v-14.442z" fill="#bc3a41"/><path d="m1082.97 23.8354v14.4419h14.44v-14.4419z" fill="#0091ea"/><path d="m1082.97 5.78459v14.44201h14.44v-14.44201z" fill="#0091ea"/><path d="m1101.02 168.256v14.442h14.45v-14.442z" fill="#0091ea"/><path d="m1101.02 150.203v14.442h14.45v-14.442z" fill="#bc3a41"/><path d="m1101.02 132.152v14.442h14.45v-14.442z" fill="#0091ea"/><path d="m1101.02 114.099v14.442h14.45v-14.442z" fill="#0091ea"/><path d="m1101.02 96.0463v14.4417h14.45v-14.4417z" fill="#0091ea"/><path d="m1101.02 77.9936v14.4419h14.45v-14.4419z" fill="#0091ea"/><path d="m1101.02 59.9418v14.442h14.45v-14.442z" fill="#0d203b"/><path d="m1101.02 41.8881v14.442h14.45v-14.442z" fill="#0d203b"/><path d="m1101.02 23.8354v14.4419h14.45v-14.4419z" fill="#0d203b"/><path d="m1101.02 5.78459v14.44201h14.45v-14.44201z" fill="#0091ea"/><path d="m1119.07 168.256v14.442h14.45v-14.442z" fill="#0091ea"/><path d="m1119.07 150.203v14.442h14.45v-14.442z" fill="#0091ea"/><path d="m1119.07 132.152v14.442h14.45v-14.442z" fill="#bc3a41"/><path d="m1119.07 114.099v14.442h14.45v-14.442z" fill="#bc3a41"/><path d="m1119.07 96.0463v14.4417h14.45v-14.4417z" fill="#bc3a41"/><path d="m1119.07 77.9936v14.4419h14.45v-14.4419z" fill="#0d203b"/><path d="m1119.07 59.9418v14.442h14.45v-14.442z" fill="#0091ea"/><path d="m1119.07 41.8881v14.442h14.45v-14.442z" fill="#bc3a41"/><path d="m1119.07 23.8354v14.4419h14.45v-14.4419z" fill="#0d203b"/><path d="m1119.07 5.78459v14.44201h14.45v-14.44201z" fill="#0091ea"/><path d="m1137.13 168.256v14.442h14.44v-14.442z" fill="#bc3a41"/><path d="m1137.13 150.203v14.442h14.44v-14.442z" fill="#0091ea"/><path d="m1137.13 132.152v14.442h14.44v-14.442z" fill="#0d203b"/><path d="m1137.13 114.099v14.442h14.44v-14.442z" fill="#0d203b"/><path d="m1137.13 96.0463v14.4417h14.44v-14.4417z" fill="#bc3a41"/><path d="m1137.13 77.9936v14.4419h14.44v-14.4419z" fill="#bc3a41"/><path d="m1137.13 59.9418v14.442h14.44v-14.442z" fill="#0d203b"/><path d="m1137.13 41.8881v14.442h14.44v-14.442z" fill="#bc3a41"/><path d="m1137.13 23.8354v14.4419h14.44v-14.4419z" fill="#0091ea"/><path d="m1137.13 5.78459v14.44201h14.44v-14.44201z" fill="#0091ea"/><path d="m1155.18 168.256v14.442h14.44v-14.442z" fill="#0d203b"/><path d="m1155.18 150.203v14.442h14.44v-14.442z" fill="#bc3a41"/><path d="m1155.18 132.152v14.442h14.44v-14.442z" fill="#0d203b"/><path d="m1155.18 114.099v14.442h14.44v-14.442z" fill="#0d203b"/><path d="m1155.18 96.0463v14.4417h14.44v-14.4417z" fill="#bc3a41"/><path d="m1155.18 77.9936v14.4419h14.44v-14.4419z" fill="#0d203b"/><path d="m1155.18 59.9418v14.442h14.44v-14.442z" fill="#bc3a41"/><path d="m1155.18 41.8881v14.442h14.44v-14.442z" fill="#bc3a41"/><path d="m1155.18 23.8354v14.4419h14.44v-14.4419z" fill="#bc3a41"/><path d="m1155.18 5.78459v14.44201h14.44v-14.44201z" fill="#0091ea"/><path d="m1173.23 168.256v14.442h14.45v-14.442z" fill="#0091ea"/><path d="m1173.23 150.203v14.442h14.44v-14.442z" fill="#0091ea"/><path d="m1173.23 132.152v14.442h14.44v-14.442z" fill="#0d203b"/><path d="m1173.23 114.099v14.442h14.44v-14.442z" fill="#bc3a41"/><path d="m1173.23 96.0463v14.4417h14.44v-14.4417z" fill="#0d203b"/><path d="m1173.23 77.9936v14.4419h14.44v-14.4419z" fill="#0d203b"/><path d="m1173.23 59.9418v14.442h14.44v-14.442z" fill="#0091ea"/><path d="m1173.23 41.8881v14.442h14.44v-14.442z" fill="#bc3a41"/><path d="m1173.23 23.8354v14.4419h14.44v-14.4419z" fill="#0d203b"/><path d="m1173.23 5.78459v14.44201h14.44v-14.44201z" fill="#bc3a41"/><path d="m1191.28 168.256v14.442h14.44v-14.442z" fill="#bc3a41"/><path d="m1191.28 150.203v14.442h14.44v-14.442z" fill="#0091ea"/><path d="m1191.28 132.152v14.442h14.44v-14.442z" fill="#bc3a41"/><path d="m1191.28 114.099v14.442h14.44v-14.442z" fill="#0091ea"/><path d="m1191.28 96.0463v14.4417h14.44v-14.4417z" fill="#0d203b"/><path d="m1191.28 77.9936v14.4419h14.44v-14.4419z" fill="#bc3a41"/><path d="m1191.28 59.9418v14.442h14.44v-14.442z" fill="#0d203b"/><path d="m1191.28 41.8881v14.442h14.44v-14.442z" fill="#0d203b"/><path d="m1191.28 23.8354v14.4419h14.44v-14.4419z" fill="#bc3a41"/><path d="m1191.28 5.78459v14.44201h14.44v-14.44201z" fill="#bc3a41"/><path d="m1209.34 168.256v14.442h14.44v-14.442z" fill="#0d203b"/><path d="m1209.33 150.203v14.442h14.44v-14.442z" fill="#0d203b"/><path d="m1209.33 132.152v14.442h14.44v-14.442z" fill="#bc3a41"/><path d="m1209.33 114.099v14.442h14.44v-14.442z" fill="#0091ea"/><path d="m1209.33 96.0463v14.4417h14.44v-14.4417z" fill="#0091ea"/><path d="m1209.33 77.9936v14.4419h14.44v-14.4419z" fill="#0091ea"/><path d="m1209.33 59.9418v14.442h14.44v-14.442z" fill="#0091ea"/><path d="m1209.33 41.8881v14.442h14.44v-14.442z" fill="#bc3a41"/><path d="m1209.33 23.8354v14.4419h14.44v-14.4419z" fill="#0d203b"/><path d="m1209.33 5.78459v14.44201h14.44v-14.44201z" fill="#bc3a41"/><path d="m1227.39 168.256v14.442h14.44v-14.442z" fill="#0d203b"/><path d="m1227.39 150.203v14.442h14.44v-14.442z" fill="#0091ea"/><path d="m1227.39 132.152v14.442h14.44v-14.442z" fill="#bc3a41"/><path d="m1227.39 114.099v14.442h14.44v-14.442z" fill="#bc3a41"/><path d="m1227.39 96.0463v14.4417h14.44v-14.4417z" fill="#0d203b"/><path d="m1227.39 77.9936v14.4419h14.44v-14.4419z" fill="#0d203b"/><path d="m1227.39 59.9418v14.442h14.44v-14.442z" fill="#0d203b"/><path d="m1227.39 41.8881v14.442h14.44v-14.442z" fill="#0d203b"/><path d="m1227.39 23.8354v14.4419h14.44v-14.4419z" fill="#0d203b"/><path d="m1227.39 5.78459v14.44201h14.44v-14.44201z" fill="#bc3a41"/><path d="m1245.44 168.256v14.442h14.44v-14.442z" fill="#bc3a41"/><path d="m1245.44 150.203v14.442h14.44v-14.442z" fill="#0091ea"/><path d="m1245.44 132.152v14.442h14.44v-14.442z" fill="#0d203b"/><path d="m1245.44 114.099v14.442h14.44v-14.442z" fill="#0091ea"/><path d="m1245.44 96.0463v14.4417h14.44v-14.4417z" fill="#0d203b"/><path d="m1245.44 77.9936v14.4419h14.44v-14.4419z" fill="#0091ea"/><path d="m1245.44 59.9418v14.442h14.44v-14.442z" fill="#0091ea"/><path d="m1245.44 41.8881v14.442h14.44v-14.442z" fill="#0091ea"/><path d="m1245.44 23.8354v14.4419h14.44v-14.4419z" fill="#0d203b"/><path d="m1245.44 5.78459v14.44201h14.44v-14.44201z" fill="#0d203b"/><path d="m1263.5 168.256v14.442h14.44v-14.442z" fill="#0091ea"/><path d="m1263.5 150.203v14.442h14.44v-14.442z" fill="#0d203b"/><path d="m1263.5 132.152v14.442h14.44v-14.442z" fill="#0d203b"/><path d="m1263.5 114.099v14.442h14.44v-14.442z" fill="#bc3a41"/><path d="m1263.5 96.0463v14.4417h14.44v-14.4417z" fill="#0091ea"/><path d="m1263.5 77.9936v14.4419h14.44v-14.4419z" fill="#bc3a41"/><path d="m1263.5 59.9418v14.442h14.44v-14.442z" fill="#0091ea"/><path d="m1263.5 41.8881v14.442h14.44v-14.442z" fill="#0091ea"/><path d="m1263.5 23.8354v14.4419h14.44v-14.4419z" fill="#bc3a41"/><path d="m1263.5 5.78459v14.44201h14.44v-14.44201z" fill="#0091ea"/><path d="m1281.55 168.256v14.442h14.44v-14.442z" fill="#0091ea"/><path d="m1281.55 150.203v14.442h14.44v-14.442z" fill="#bc3a41"/><path d="m1281.55 132.152v14.442h14.44v-14.442z" fill="#0091ea"/><path d="m1281.55 114.099v14.442h14.44v-14.442z" fill="#0d203b"/><path d="m1281.55 96.0463v14.4417h14.44v-14.4417z" fill="#bc3a41"/><path d="m1281.55 77.9936v14.4419h14.44v-14.4419z" fill="#0091ea"/><path d="m1281.55 59.9418v14.442h14.44v-14.442z" fill="#bc3a41"/><path d="m1281.55 41.8881v14.442h14.44v-14.442z" fill="#bc3a41"/><path d="m1281.55 23.8354v14.4419h14.44v-14.4419z" fill="#0091ea"/><path d="m1281.55 5.78459v14.44201h14.44v-14.44201z" fill="#0091ea"/><path d="m1299.6 168.256v14.442h14.44v-14.442z" fill="#0091ea"/><path d="m1299.59 150.203v14.442h14.45v-14.442z" fill="#0091ea"/><path d="m1299.59 132.152v14.442h14.45v-14.442z" fill="#0d203b"/><path d="m1299.59 114.099v14.442h14.45v-14.442z" fill="#0d203b"/><path d="m1299.59 96.0463v14.4417h14.45v-14.4417z" fill="#bc3a41"/><path d="m1299.59 77.9936v14.4419h14.45v-14.4419z" fill="#0091ea"/><path d="m1299.59 59.9418v14.442h14.45v-14.442z" fill="#0091ea"/><path d="m1299.59 41.8881v14.442h14.45v-14.442z" fill="#bc3a41"/><path d="m1299.59 23.8354v14.4419h14.45v-14.4419z" fill="#0d203b"/><path d="m1299.59 5.78459v14.44201h14.45v-14.44201z" fill="#bc3a41"/><path d="m1317.65 168.256v14.442h14.44v-14.442z" fill="#bc3a41"/><path d="m1317.65 150.203v14.442h14.44v-14.442z" fill="#0d203b"/><path d="m1317.65 132.152v14.442h14.44v-14.442z" fill="#0d203b"/><path d="m1317.65 114.099v14.442h14.44v-14.442z" fill="#bc3a41"/><path d="m1317.65 96.0463v14.4417h14.44v-14.4417z" fill="#0d203b"/><path d="m1317.65 77.9936v14.4419h14.44v-14.4419z" fill="#0d203b"/><path d="m1317.65 59.9418v14.442h14.44v-14.442z" fill="#bc3a41"/><path d="m1317.65 41.8881v14.442h14.44v-14.442z" fill="#bc3a41"/><path d="m1317.65 23.8354v14.4419h14.44v-14.4419z" fill="#bc3a41"/><path d="m1317.65 5.78459v14.44201h14.44v-14.44201z" fill="#0d203b"/><path d="m1335.7 168.256v14.442h14.45v-14.442z" fill="#0091ea"/><path d="m1335.7 150.203v14.442h14.44v-14.442z" fill="#bc3a41"/><path d="m1335.7 132.152v14.442h14.44v-14.442z" fill="#0091ea"/><path d="m1335.7 114.099v14.442h14.44v-14.442z" fill="#0d203b"/><path d="m1335.7 96.0463v14.4417h14.44v-14.4417z" fill="#0d203b"/><path d="m1335.7 77.9936v14.4419h14.44v-14.4419z" fill="#0d203b"/><path d="m1335.7 59.9418v14.442h14.44v-14.442z" fill="#0091ea"/><path d="m1335.7 41.8881v14.442h14.44v-14.442z" fill="#0091ea"/><path d="m1335.7 23.8354v14.4419h14.44v-14.4419z" fill="#0091ea"/><path d="m1335.7 5.78459v14.44201h14.44v-14.44201z" fill="#0091ea"/><path d="m1353.76 168.256v14.442h14.44v-14.442z" fill="#0091ea"/><path d="m1353.76 150.203v14.442h14.44v-14.442z" fill="#bc3a41"/><path d="m1353.76 132.152v14.442h14.44v-14.442z" fill="#0091ea"/><path d="m1353.76 114.099v14.442h14.44v-14.442z" fill="#bc3a41"/><path d="m1353.76 96.0463v14.4417h14.44v-14.4417z" fill="#bc3a41"/><path d="m1353.76 77.9936v14.4419h14.44v-14.4419z" fill="#bc3a41"/><path d="m1353.76 59.9418v14.442h14.44v-14.442z" fill="#0d203b"/><path d="m1353.76 41.8881v14.442h14.44v-14.442z" fill="#0d203b"/><path d="m1353.76 23.8354v14.4419h14.44v-14.4419z" fill="#0d203b"/><path d="m1353.76 5.78459v14.44201h14.44v-14.44201z" fill="#bc3a41"/><path d="m1371.81 168.256v14.442h14.44v-14.442z" fill="#bc3a41"/><path d="m1371.81 150.203v14.442h14.44v-14.442z" fill="#0091ea"/><path d="m1371.81 132.152v14.442h14.44v-14.442z" fill="#0091ea"/><path d="m1371.81 114.099v14.442h14.44v-14.442z" fill="#bc3a41"/><path d="m1371.81 96.0463v14.4417h14.44v-14.4417z" fill="#bc3a41"/><path d="m1371.81 77.9936v14.4419h14.44v-14.4419z" fill="#0091ea"/><path d="m1371.81 59.9418v14.442h14.44v-14.442z" fill="#bc3a41"/><path d="m1371.81 41.8881v14.442h14.44v-14.442z" fill="#0091ea"/><path d="m1371.81 23.8354v14.4419h14.44v-14.4419z" fill="#0d203b"/><path d="m1371.81 5.78459v14.44201h14.44v-14.44201z" fill="#0d203b"/><path d="m1389.86 168.256v14.442h14.45v-14.442z" fill="#0d203b"/><path d="m1389.86 150.203v14.442h14.45v-14.442z" fill="#bc3a41"/><path d="m1389.86 132.152v14.442h14.45v-14.442z" fill="#0091ea"/><path d="m1389.86 114.099v14.442h14.45v-14.442z" fill="#0091ea"/><path d="m1389.86 96.0463v14.4417h14.45v-14.4417z" fill="#0091ea"/><path d="m1389.86 77.9936v14.4419h14.45v-14.4419z" fill="#0d203b"/><path d="m1389.86 59.9418v14.442h14.45v-14.442z" fill="#0091ea"/><path d="m1389.86 41.8881v14.442h14.45v-14.442z" fill="#bc3a41"/><path d="m1389.86 23.8354v14.4419h14.45v-14.4419z" fill="#0d203b"/><path d="m1389.86 5.78459v14.44201h14.45v-14.44201z" fill="#0d203b"/><path d="m1407.91 168.256v14.442h14.45v-14.442z" fill="#bc3a41"/><path d="m1407.91 150.203v14.442h14.45v-14.442z" fill="#0091ea"/><path d="m1407.91 132.152v14.442h14.45v-14.442z" fill="#0d203b"/><path d="m1407.91 114.099v14.442h14.45v-14.442z" fill="#0d203b"/><path d="m1407.91 96.0463v14.4417h14.45v-14.4417z" fill="#bc3a41"/><path d="m1407.91 77.9936v14.4419h14.45v-14.4419z" fill="#0d203b"/><path d="m1407.91 59.9418v14.442h14.45v-14.442z" fill="#bc3a41"/><path d="m1407.91 41.8881v14.442h14.45v-14.442z" fill="#bc3a41"/><path d="m1407.91 23.8354v14.4419h14.45v-14.4419z" fill="#0d203b"/><path d="m1407.91 5.78459v14.44201h14.45v-14.44201z" fill="#0d203b"/><path d="m1425.96 168.256v14.442h14.45v-14.442z" fill="#0d203b"/><path d="m1425.96 150.203v14.442h14.44v-14.442z" fill="#bc3a41"/><path d="m1425.96 132.152v14.442h14.44v-14.442z" fill="#0091ea"/><path d="m1425.96 114.099v14.442h14.44v-14.442z" fill="#0d203b"/><path d="m1425.96 96.0463v14.4417h14.44v-14.4417z" fill="#bc3a41"/><path d="m1425.96 77.9936v14.4419h14.44v-14.4419z" fill="#0091ea"/><path d="m1425.96 59.9418v14.442h14.44v-14.442z" fill="#0091ea"/><path d="m1425.96 41.8881v14.442h14.44v-14.442z" fill="#bc3a41"/><path d="m1425.96 23.8354v14.4419h14.44v-14.4419z" fill="#0091ea"/><path d="m1425.96 5.78459v14.44201h14.44v-14.44201z" fill="#bc3a41"/></g></svg>